<svg width="162" height="54" viewBox="0 0 162 54" fill="none" xmlns="http://www.w3.org/2000/svg">
<g clip-path="url(#clip0_43_13)">
<g opacity="0.22">
<path d="M158.082 20.2255V47.0291H6.85613L2.79144 42.9545V5.79272H143.684L158.082 20.2255Z" fill="#61F908"/>
</g>
<path d="M162 50.4164H0V3.19092H162V50.4164ZM0.293833 50.1709H161.755V3.43637H0.293833V50.1709Z" fill="#61F908"/>
<path d="M158.18 50.3673L154.556 54H105.388L101.764 50.3673H158.18Z" fill="#61F908"/>
<g opacity="0.22">
<path d="M111.755 7.70728H142.117L155.732 21.4036V44.4273H111.755V7.70728Z" fill="#61F908"/>
</g>
<path d="M58.1789 0H0.440735V2.11091H58.1789V0Z" fill="#61F908"/>
<path d="M117.68 0H59.942V2.11091H117.68V0Z" fill="#61F908"/>
<path d="M161.755 0H119.443V2.11091H161.755V0Z" fill="#61F908"/>
<path d="M149.365 7.70728C149.365 7.70728 156.466 14.4818 156.27 14.6291C156.074 14.8255 156.368 7.70728 156.27 7.70728H149.365Z" fill="#61F908"/>
</g>
<defs>
<clipPath id="clip0_43_13">
<rect width="162" height="54" fill="white"/>
</clipPath>
</defs>
</svg>
