<svg width="401" height="232" viewBox="0 0 401 232" fill="none" xmlns="http://www.w3.org/2000/svg" preserveAspectRatio='none'>
<g opacity="0.07">
<path d="M10.8214 1.10074H46.8757L52.9078 5.88803H176.482L182.647 1H383.953L390.637 6.29974V18.1344L398.194 24.1261V117.717L394.045 121.006V175.221L399.801 179.79V216.936L382.064 231H10.8214L1 223.212V115.623L12.8874 106.193V36.1841L1.82858 27.4155V7.76264L10.8214 1.10074Z" fill="#61F908"/>
</g>
<path d="M10.8214 1.10074H46.8757L52.9078 5.88803H176.482L182.647 1H383.953L390.637 6.29974V18.1344L398.194 24.1261V117.717L394.045 121.006V175.221L399.801 179.79V216.936L382.064 231H10.8214L1 223.212V115.623L12.8874 106.193V36.1842L1.82858 27.4155V7.76265L10.8214 1.10074Z" stroke="#61F908" stroke-width="1.9701" stroke-miterlimit="10"/>
<path d="M18.461 34.3577L7.40222 25.5891V9.68108L13.0145 5.52013H44.5668L50.5989 10.303H178.786L184.95 5.41501" stroke="#61F908" stroke-width="1.9701" stroke-miterlimit="10"/>
<path d="M243.813 226.581H13.1248L6.56799 221.382V117.454L18.4609 108.024" stroke="#61F908" stroke-width="1.9701" stroke-miterlimit="10"/>
<path d="M381.644 5.41501L385.069 8.13058V19.9652L392.626 25.9526V115.89L388.477 119.175V177.052L394.233 181.616" stroke="#61F908" stroke-width="1.9701" stroke-miterlimit="10"/>
<path d="M3.81717 75.2489L8.05398 78.6784V74.7934L3.78955 71.3201L3.81717 75.2489Z" fill="#61F908"/>
<path d="M8.1919 74.7452V78.95L3.67337 75.2927L3.64575 71.0486L8.1919 74.7452ZM7.91018 78.4069V74.8372L3.92747 71.596L3.95509 75.2051L7.91018 78.4069Z" fill="#61F908"/>
<path d="M3.81717 67.8905L8.05398 71.32V67.435L3.78955 63.9617L3.81717 67.8905Z" fill="#61F908"/>
<path d="M8.1919 67.3869V71.5916L3.67337 67.9344L3.64575 63.6902L8.1919 67.3869ZM7.91018 71.0485V67.4788L3.92747 64.2377L3.95509 67.8468L7.91018 71.0485Z" fill="#61F908"/>
<path d="M3.81717 60.5323L8.05398 63.9618V60.0768L3.78955 56.6035L3.81717 60.5323Z" fill="#61F908"/>
<path d="M8.1919 60.0286V64.2333L3.67337 60.5761L3.64575 56.3319L8.1919 60.0286ZM7.91018 63.6902V60.1206L3.92747 56.8794L3.95509 60.4885L7.91018 63.6902Z" fill="#61F908"/>
<path d="M3.81717 53.1739L8.05398 56.6034V52.7184L3.78955 49.2451L3.81717 53.1739Z" fill="#61F908"/>
<path d="M8.1919 52.6746V56.8794L3.67337 53.2221L3.64575 48.978L8.1919 52.6746ZM7.91018 56.3319V52.7622L3.92747 49.5211L3.95509 53.1258L7.91018 56.3319Z" fill="#61F908"/>
<path d="M3.81717 45.8157L8.05398 49.2452V45.3601L3.78955 41.8868L3.81717 45.8157Z" fill="#61F908"/>
<path d="M8.1919 45.3119V49.5167L3.67337 45.8594L3.64575 41.6153L8.1919 45.3119ZM7.91018 48.9736V45.4039L3.92747 42.1628L3.95509 45.7718L7.91018 48.9736Z" fill="#61F908"/>
<path d="M3.76746 34.5285L3.83374 38.4573L8.05398 41.8868V38.0018L3.76746 34.5285Z" fill="#61F908"/>
<path d="M8.19202 37.9536V42.1584L3.69559 38.5011L3.62378 34.2526L8.19202 37.9536ZM7.9103 41.6153V38.0456L3.91102 34.8044L3.97178 38.4091L7.9103 41.6153Z" fill="#61F908"/>
<path d="M396.619 171.52L400.856 174.954V171.065L396.592 167.596L396.619 171.52Z" fill="#61F908"/>
<path d="M401 171.021V175.226L396.481 171.568L396.454 167.324L401 171.021ZM400.718 174.683V171.113L396.736 167.872L396.763 171.481L400.718 174.683Z" fill="#61F908"/>
<path d="M396.619 164.162L400.856 167.596V163.706L396.592 160.238L396.619 164.162Z" fill="#61F908"/>
<path d="M401 163.663V167.867L396.481 164.21L396.454 159.966L401 163.663ZM400.718 167.324V163.755L396.736 160.513L396.763 164.123L400.718 167.324Z" fill="#61F908"/>
<path d="M396.619 156.804L400.856 160.238V156.353L396.592 152.879L396.619 156.804Z" fill="#61F908"/>
<path d="M401 156.304V160.509L396.481 156.852L396.454 152.608L401 156.304ZM400.718 159.966V156.396L396.736 153.155L396.763 156.764L400.718 159.966Z" fill="#61F908"/>
<path d="M396.619 149.445L400.856 152.879V148.994L396.592 145.521L396.619 149.445Z" fill="#61F908"/>
<path d="M401 148.946V153.151L396.481 149.494L396.454 145.249L401 148.946ZM400.718 152.608V149.038L396.736 145.797L396.763 149.406L400.718 152.608Z" fill="#61F908"/>
</svg>
