<svg width="180" height="60" viewBox="0 0 180 60" fill="none" xmlns="http://www.w3.org/2000/svg">
<path d="M1.14987 58.7699C0.519942 58.7699 0 58.3199 0 57.7499V26.5099L23.8174 5.48994C24.2673 5.08994 24.9972 5.08994 25.4472 5.48994C25.8971 5.88994 25.8971 6.52994 25.4472 6.92994L2.30974 27.3599V57.7599C2.30974 58.3199 1.7898 58.7699 1.14987 58.7699Z" fill="#53555C"/>
<path d="M104.838 57.6699H1.1499V57.8399H104.838V57.6699Z" fill="#53555C"/>
<path d="M156.213 58.0901H104.838C104.628 58.0901 104.458 57.9401 104.458 57.7501C104.458 57.5601 104.628 57.4101 104.838 57.4101H155.893L179.15 36.8801V6.55012H24.6373C24.4273 6.55012 24.2573 6.40012 24.2573 6.21012C24.2573 6.02012 24.4273 5.87012 24.6373 5.87012H179.92V37.1701L179.81 37.2701L156.213 58.0901Z" fill="#53555C"/>
<path d="M100.549 59.0898H5.41943V59.2598H100.549V59.0898Z" fill="#53555C"/>
<path d="M4.59967 59.9998C4.07967 59.9998 3.65967 59.6298 3.65967 59.1698C3.65967 58.7098 4.07967 58.3398 4.59967 58.3398C5.11967 58.3398 5.53967 58.7098 5.53967 59.1698C5.53967 59.6298 5.11967 59.9998 4.59967 59.9998ZM4.59967 58.5098C4.18967 58.5098 3.84967 58.8098 3.84967 59.1698C3.84967 59.5298 4.18967 59.8298 4.59967 59.8298C5.00967 59.8298 5.34967 59.5298 5.34967 59.1698C5.34967 58.8098 5.00967 58.5098 4.59967 58.5098Z" fill="#53555C"/>
<path d="M101.339 59.9998C100.819 59.9998 100.399 59.6298 100.399 59.1698C100.399 58.7098 100.819 58.3398 101.339 58.3398C101.859 58.3398 102.279 58.7098 102.279 59.1698C102.279 59.6298 101.859 59.9998 101.339 59.9998ZM101.339 58.5098C100.929 58.5098 100.589 58.8098 100.589 59.1698C100.589 59.5298 100.919 59.8298 101.339 59.8298C101.749 59.8298 102.089 59.5298 102.089 59.1698C102.089 58.8098 101.749 58.5098 101.339 58.5098Z" fill="#53555C"/>
<g opacity="0.11">
<path d="M80.7711 3.12984H69.6224C68.7825 3.12984 68.1025 2.44984 68.1025 1.60984C68.1025 0.769844 68.7825 0.0898438 69.6224 0.0898438H80.7711C81.611 0.0898438 82.291 0.769844 82.291 1.60984C82.291 2.44984 81.611 3.12984 80.7711 3.12984Z" fill="#53555C"/>
<path d="M80.761 3.22H69.6323C68.7324 3.22 68.0024 2.57 68.0024 1.78V1.44C68.0024 0.64 68.7324 0 69.6323 0H80.751C81.6509 0 82.3808 0.65 82.3808 1.44V1.78C82.3908 2.57 81.6609 3.22 80.761 3.22ZM69.6323 0.17C68.8423 0.17 68.1924 0.74 68.1924 1.44V1.78C68.1924 2.48 68.8423 3.05 69.6323 3.05H80.751C81.5409 3.05 82.1909 2.48 82.1909 1.78V1.44C82.1909 0.74 81.5409 0.17 80.751 0.17H69.6323Z" fill="#53555C"/>
</g>
<path d="M157.373 57.8602L173.041 44.1902C173.151 44.0902 173.341 44.0902 173.451 44.1902C173.561 44.2902 173.561 44.4502 173.451 44.5502L158.162 57.8902L157.373 57.8602Z" fill="#53555C"/>
<path d="M178.38 3.62008H85.7308C84.8909 3.62008 84.2109 2.94008 84.2109 2.10008C84.2109 1.26008 84.8909 0.580078 85.7308 0.580078H178.38C179.22 0.580078 179.9 1.26008 179.9 2.10008C179.9 2.94008 179.22 3.62008 178.38 3.62008Z" fill="#53555C"/>
<g opacity="0.11">
<path d="M178.38 3.61959H85.7308C84.8909 3.61959 84.2109 2.93959 84.2109 2.09959C84.2109 1.25959 84.8909 0.57959 85.7308 0.57959H178.38C179.22 0.57959 179.9 1.25959 179.9 2.09959C179.9 2.93959 179.22 3.61959 178.38 3.61959Z" fill="#53555C"/>
<path d="M178.37 3.70975H85.7407C84.8408 3.70975 84.1108 3.05975 84.1108 2.26975V1.92975C84.1108 1.12975 84.8408 0.489746 85.7407 0.489746H178.36C179.26 0.489746 179.99 1.13975 179.99 1.92975V2.26975C180 3.05975 179.27 3.70975 178.37 3.70975ZM85.7407 0.659746C84.9507 0.659746 84.3008 1.22975 84.3008 1.92975V2.26975C84.3008 2.96975 84.9507 3.53975 85.7407 3.53975H178.36C179.15 3.53975 179.8 2.96975 179.8 2.26975V1.92975C179.8 1.22975 179.15 0.659746 178.36 0.659746H85.7407Z" fill="#53555C"/>
</g>
<path d="M173.741 3.90982L173.591 3.80982L176.601 0.319824L176.761 0.419824L173.741 3.90982Z" fill="#53555C"/>
<path d="M174.801 3.90982L174.651 3.80982L177.661 0.319824L177.821 0.419824L174.801 3.90982Z" fill="#53555C"/>
<path d="M175.86 3.90982L175.71 3.80982L178.72 0.319824L178.88 0.419824L175.86 3.90982Z" fill="#53555C"/>
<path d="M179.21 5.08998H68.5126C68.0926 5.08998 67.7427 4.78998 67.7427 4.40998C67.7427 4.02998 68.0826 3.72998 68.5126 3.72998H179.21C179.63 3.72998 179.98 4.02998 179.98 4.40998C179.98 4.78998 179.64 5.08998 179.21 5.08998Z" fill="#53555C"/>
<path d="M68.5122 4.58023H25.127C25.017 4.58023 24.937 4.50023 24.937 4.41023C24.937 4.32023 25.027 4.24023 25.127 4.24023H68.5122C68.6222 4.24023 68.7021 4.32023 68.7021 4.41023C68.7021 4.50023 68.6122 4.58023 68.5122 4.58023Z" fill="#53555C"/>
<path d="M5.10938 28.5301V55.0201H154.813L176.23 36.1101V8.83008H27.1369L5.10938 28.5301Z" fill="#53555C"/>
</svg>
