<svg width="180" height="60" viewBox="0 0 180 60" fill="none" xmlns="http://www.w3.org/2000/svg" preserveAspectRatio="none">
<path d="M1.14987 58.77C0.519942 58.77 0 58.32 0 57.75V26.51L23.8174 5.49C24.2673 5.09 24.9972 5.09 25.4472 5.49C25.8971 5.89 25.8971 6.53 25.4472 6.93L2.30974 27.36V57.76C2.30974 58.32 1.7898 58.77 1.14987 58.77Z" fill="#61F908"/>
<path d="M104.839 57.67H1.15002V57.84H104.839V57.67Z" fill="#61F908"/>
<path d="M156.213 58.09H104.838C104.628 58.09 104.458 57.94 104.458 57.75C104.458 57.56 104.628 57.41 104.838 57.41H155.893L179.15 36.88V6.55H24.6373C24.4273 6.55 24.2573 6.4 24.2573 6.21C24.2573 6.02 24.4273 5.87 24.6373 5.87H179.92V37.17L179.81 37.27L156.213 58.09Z" fill="#61F908"/>
<path d="M100.549 59.09H5.41943V59.26H100.549V59.09Z" fill="#61F908"/>
<path d="M4.59955 60C4.07955 60 3.65955 59.63 3.65955 59.17C3.65955 58.71 4.07955 58.34 4.59955 58.34C5.11955 58.34 5.53955 58.71 5.53955 59.17C5.53955 59.63 5.11955 60 4.59955 60ZM4.59955 58.51C4.18955 58.51 3.84955 58.81 3.84955 59.17C3.84955 59.53 4.18955 59.83 4.59955 59.83C5.00955 59.83 5.34955 59.53 5.34955 59.17C5.34955 58.81 5.00955 58.51 4.59955 58.51Z" fill="#61F908"/>
<path d="M101.339 60C100.819 60 100.399 59.63 100.399 59.17C100.399 58.71 100.819 58.34 101.339 58.34C101.859 58.34 102.279 58.71 102.279 59.17C102.279 59.63 101.859 60 101.339 60ZM101.339 58.51C100.929 58.51 100.589 58.81 100.589 59.17C100.589 59.53 100.919 59.83 101.339 59.83C101.749 59.83 102.089 59.53 102.089 59.17C102.089 58.81 101.749 58.51 101.339 58.51Z" fill="#61F908"/>
<g opacity="0.11">
<path d="M80.771 3.13003H69.6222C68.7823 3.13003 68.1024 2.45003 68.1024 1.61003C68.1024 0.770027 68.7823 0.0900269 69.6222 0.0900269H80.771C81.6109 0.0900269 82.2908 0.770027 82.2908 1.61003C82.2908 2.45003 81.6109 3.13003 80.771 3.13003Z" fill="#61F908"/>
<path d="M80.761 3.22H69.6323C68.7324 3.22 68.0024 2.57 68.0024 1.78V1.44C68.0024 0.64 68.7324 0 69.6323 0H80.751C81.6509 0 82.3808 0.65 82.3808 1.44V1.78C82.3908 2.57 81.6609 3.22 80.761 3.22ZM69.6323 0.17C68.8423 0.17 68.1924 0.74 68.1924 1.44V1.78C68.1924 2.48 68.8423 3.05 69.6323 3.05H80.751C81.5409 3.05 82.1909 2.48 82.1909 1.78V1.44C82.1909 0.74 81.5409 0.17 80.751 0.17H69.6323Z" fill="#61F908"/>
</g>
<path d="M157.373 57.86L173.041 44.19C173.151 44.09 173.341 44.09 173.451 44.19C173.561 44.29 173.561 44.45 173.451 44.55L158.162 57.89L157.373 57.86Z" fill="#61F908"/>
<path d="M178.38 3.62002H85.7304C84.8905 3.62002 84.2106 2.94002 84.2106 2.10002C84.2106 1.26002 84.8905 0.580017 85.7304 0.580017H178.38C179.22 0.580017 179.9 1.26002 179.9 2.10002C179.9 2.94002 179.22 3.62002 178.38 3.62002Z" fill="#61F908"/>
<g opacity="0.11">
<path d="M178.38 3.62002H85.7304C84.8905 3.62002 84.2106 2.94002 84.2106 2.10002C84.2106 1.26002 84.8905 0.580017 85.7304 0.580017H178.38C179.22 0.580017 179.9 1.26002 179.9 2.10002C179.9 2.94002 179.22 3.62002 178.38 3.62002Z" fill="#61F908"/>
<path d="M178.37 3.70999H85.7404C84.8405 3.70999 84.1106 3.05999 84.1106 2.26999V1.92999C84.1106 1.12999 84.8405 0.48999 85.7404 0.48999H178.36C179.26 0.48999 179.99 1.13999 179.99 1.92999V2.26999C180 3.05999 179.27 3.70999 178.37 3.70999ZM85.7404 0.65999C84.9505 0.65999 84.3006 1.22999 84.3006 1.92999V2.26999C84.3006 2.96999 84.9505 3.53999 85.7404 3.53999H178.36C179.15 3.53999 179.8 2.96999 179.8 2.26999V1.92999C179.8 1.22999 179.15 0.65999 178.36 0.65999H85.7404Z" fill="#61F908"/>
</g>
<path d="M173.741 3.91001L173.591 3.81001L176.601 0.320007L176.761 0.420007L173.741 3.91001Z" fill="#61F908"/>
<path d="M174.801 3.91001L174.651 3.81001L177.661 0.320007L177.821 0.420007L174.801 3.91001Z" fill="#61F908"/>
<path d="M175.86 3.91001L175.71 3.81001L178.72 0.320007L178.88 0.420007L175.86 3.91001Z" fill="#61F908"/>
<path d="M179.21 5.08998H68.5123C68.0924 5.08998 67.7424 4.78998 67.7424 4.40998C67.7424 4.02998 68.0824 3.72998 68.5123 3.72998H179.21C179.63 3.72998 179.98 4.02998 179.98 4.40998C179.98 4.78998 179.64 5.08998 179.21 5.08998Z" fill="#61F908"/>
<path d="M68.5124 4.57999H25.1272C25.0172 4.57999 24.9373 4.49999 24.9373 4.40999C24.9373 4.31999 25.0272 4.23999 25.1272 4.23999H68.5124C68.6224 4.23999 68.7024 4.31999 68.7024 4.40999C68.7024 4.49999 68.6124 4.57999 68.5124 4.57999Z" fill="#61F908"/>
<path opacity="0.22" d="M5.10938 28.53V55.02H154.813L176.23 36.11V8.83002H27.1369L5.10938 28.53Z" fill="#61F908"/>
</svg>
