<svg width="180" height="60" viewBox="0 0 180 60" fill="none" xmlns="http://www.w3.org/2000/svg" preserveAspectRatio="none">
<path d="M1.14994 58.77C0.519971 58.77 0 58.32 0 57.75V26.51L23.8187 5.49C24.2686 5.09 24.9986 5.09 25.4486 5.49C25.8985 5.89 25.8985 6.53 25.4486 6.93L2.30987 27.36V57.76C2.30987 58.32 1.7899 58.77 1.14994 58.77Z" fill="#61F908"/>
<path d="M104.844 57.67H1.15002V57.84H104.844V57.67Z" fill="#61F908"/>
<path d="M156.221 58.09H104.844C104.634 58.09 104.464 57.94 104.464 57.75C104.464 57.56 104.634 57.41 104.844 57.41H155.901L179.16 36.88V6.55H24.6386C24.4287 6.55 24.2587 6.4 24.2587 6.21C24.2587 6.02 24.4287 5.87 24.6386 5.87H179.93V37.17L179.82 37.27L156.221 58.09Z" fill="#61F908"/>
<path d="M100.554 59.09H5.41968V59.26H100.554V59.09Z" fill="#61F908"/>
<path d="M4.59955 60C4.07955 60 3.65955 59.63 3.65955 59.17C3.65955 58.71 4.07955 58.34 4.59955 58.34C5.11955 58.34 5.53955 58.71 5.53955 59.17C5.53955 59.63 5.11955 60 4.59955 60ZM4.59955 58.51C4.18955 58.51 3.84955 58.81 3.84955 59.17C3.84955 59.53 4.18955 59.83 4.59955 59.83C5.00955 59.83 5.34955 59.53 5.34955 59.17C5.34955 58.81 5.00955 58.51 4.59955 58.51Z" fill="#61F908"/>
<path d="M101.344 60C100.824 60 100.404 59.63 100.404 59.17C100.404 58.71 100.824 58.34 101.344 58.34C101.864 58.34 102.284 58.71 102.284 59.17C102.284 59.63 101.864 60 101.344 60ZM101.344 58.51C100.934 58.51 100.594 58.81 100.594 59.17C100.594 59.53 100.924 59.83 101.344 59.83C101.754 59.83 102.094 59.53 102.094 59.17C102.094 58.81 101.754 58.51 101.344 58.51Z" fill="#61F908"/>
<g opacity="0.11">
<path d="M80.7748 3.13H69.626C68.7861 3.13 68.1062 2.45 68.1062 1.61C68.1062 0.77 68.7861 0.0900002 69.626 0.0900002H80.7748C81.6147 0.0900002 82.2946 0.77 82.2946 1.61C82.2946 2.45 81.6147 3.13 80.7748 3.13Z" fill="#61F908"/>
<path d="M80.7648 3.22H69.636C68.7361 3.22 68.0062 2.57 68.0062 1.78V1.44C68.0062 0.64 68.7361 0 69.636 0H80.7548C81.6547 0 82.3846 0.65 82.3846 1.44V1.78C82.3946 2.57 81.6647 3.22 80.7648 3.22ZM69.636 0.17C68.8461 0.17 68.1962 0.74 68.1962 1.44V1.78C68.1962 2.48 68.8461 3.05 69.636 3.05H80.7548C81.5447 3.05 82.1946 2.48 82.1946 1.78V1.44C82.1946 0.74 81.5447 0.17 80.7548 0.17H69.636Z" fill="#61F908"/>
</g>
<path d="M157.381 57.86L173.049 44.19C173.159 44.09 173.349 44.09 173.459 44.19C173.569 44.29 173.569 44.45 173.459 44.55L158.171 57.89L157.381 57.86Z" fill="#61F908"/>
<path d="M178.39 3.62H85.7351C84.8952 3.62 84.2152 2.94 84.2152 2.1C84.2152 1.26 84.8952 0.579998 85.7351 0.579998H178.39C179.23 0.579998 179.91 1.26 179.91 2.1C179.91 2.94 179.23 3.62 178.39 3.62Z" fill="#61F908"/>
<g opacity="0.11">
<path d="M178.39 3.62H85.7351C84.8952 3.62 84.2152 2.94 84.2152 2.1C84.2152 1.26 84.8952 0.579998 85.7351 0.579998H178.39C179.23 0.579998 179.91 1.26 179.91 2.1C179.91 2.94 179.23 3.62 178.39 3.62Z" fill="#61F908"/>
<path d="M178.38 3.71H85.7451C84.8452 3.71 84.1152 3.06 84.1152 2.27V1.93C84.1152 1.13 84.8452 0.489998 85.7451 0.489998H178.37C179.27 0.489998 180 1.14 180 1.93V2.27C180.01 3.06 179.28 3.71 178.38 3.71ZM85.7451 0.659998C84.9552 0.659998 84.3052 1.23 84.3052 1.93V2.27C84.3052 2.97 84.9552 3.54 85.7451 3.54H178.37C179.16 3.54 179.81 2.97 179.81 2.27V1.93C179.81 1.23 179.16 0.659998 178.37 0.659998H85.7451Z" fill="#61F908"/>
</g>
<path d="M173.75 3.91L173.6 3.81L176.61 0.32L176.77 0.42L173.75 3.91Z" fill="#61F908"/>
<path d="M174.81 3.91L174.66 3.81L177.67 0.32L177.83 0.42L174.81 3.91Z" fill="#61F908"/>
<path d="M175.87 3.91L175.72 3.81L178.73 0.32L178.89 0.42L175.87 3.91Z" fill="#61F908"/>
<path d="M179.22 5.09H68.5162C68.0962 5.09 67.7462 4.79 67.7462 4.41C67.7462 4.03 68.0862 3.73 68.5162 3.73H179.22C179.64 3.73 179.99 4.03 179.99 4.41C179.99 4.79 179.65 5.09 179.22 5.09Z" fill="#61F908"/>
<path d="M68.5161 4.58H25.1286C25.0186 4.58 24.9386 4.5 24.9386 4.41C24.9386 4.32 25.0286 4.24 25.1286 4.24H68.5161C68.6261 4.24 68.7061 4.32 68.7061 4.41C68.7061 4.5 68.6161 4.58 68.5161 4.58Z" fill="#61F908"/>
<path d="M5.10974 28.53V55.02H154.821L176.24 36.11V8.83H27.1385L5.10974 28.53Z" fill="#61F908"/>
</svg>
