<svg width="250" height="60" viewBox="0 0 250 60" fill="none" xmlns="http://www.w3.org/2000/svg">
<path d="M232.895 55.2978H17.1188V4.65985H232.891V55.2978H232.895ZM17.47 54.9498H232.544V5.01252H17.47V54.9498Z" fill="#61F908"/>
<path d="M214.526 4.90909L217.542 1.88558H226.633L228.511 0H234.605L238 3.40439V11.5345L239.574 13.1144V15.7947H237.129L234.263 18.6771H232.83V12.8558L231.05 11.0737V4.90909H214.526Z" fill="#61F908"/>
<path d="M204.812 4.83388L206.915 2.72729H178.658L176.584 4.80566L204.812 4.83388Z" fill="#61F908"/>
<path d="M168.996 4.83388L171.099 2.72729H142.842L140.768 4.80566L168.996 4.83388Z" fill="#61F908"/>
<path d="M214.526 55.0909L217.542 58.1144H226.633L228.511 60H234.605L238 56.5956V48.4655L239.574 46.8856V44.2053H237.129L234.263 41.3229H232.83V47.1395L231.05 48.9263V55.0909H214.526Z" fill="#61F908"/>
<path d="M204.812 55.1614L206.915 57.2727H178.658L176.584 55.1944L204.812 55.1614Z" fill="#61F908"/>
<path d="M168.996 55.1614L171.099 57.2727H142.842L140.768 55.1944L168.996 55.1614Z" fill="#61F908"/>
<path d="M35.6848 4.90909L32.6732 1.88558H23.5775L21.6994 0H15.6059L12.2149 3.40439V11.5345L10.6412 13.1144V15.7947H13.0814L15.9478 18.6771H17.3857V12.8558L19.1608 11.0737V4.90909H35.6848Z" fill="#61F908"/>
<path d="M45.3987 4.83388L43.3004 2.72729H71.5523L73.6271 4.80566L45.3987 4.83388Z" fill="#61F908"/>
<path d="M81.2147 4.83388L79.1165 2.72729H107.373L109.443 4.80566L81.2147 4.83388Z" fill="#61F908"/>
<path d="M35.6848 55.0909L32.6732 58.1144H23.5775L21.6994 60H15.6059L12.2149 56.5956V48.4655L10.6412 46.8856V44.2053H13.0814L15.9478 41.3229H17.3857V47.1395L19.1608 48.9263V55.0909H35.6848Z" fill="#61F908"/>
<path d="M45.3987 55.1614L43.3004 57.2727H71.5523L73.6271 55.1944L45.3987 55.1614Z" fill="#61F908"/>
<path d="M81.2147 55.1614L79.1165 57.2727H107.373L109.443 55.1944L81.2147 55.1614Z" fill="#61F908"/>
<path d="M240.155 21.7899H237.813L235.621 23.9906V28.0439V31.152V35.21L237.813 37.4106H240.155L242.726 39.9921V30.1881V29.0125V19.2084L240.155 21.7899Z" fill="#61F908"/>
<path d="M247.372 34.1238H248.731L250 32.8495V30.4984V28.6975V26.3511L248.731 25.0768H247.372L245.883 23.5815V29.2617V29.9388V35.6191L247.372 34.1238Z" fill="#61F908"/>
<path d="M9.84038 21.7899H12.1869L14.3742 23.9906V28.0439V31.152V35.21L12.1869 37.4106H9.84038L7.26904 39.9921V30.1881V29.0125V19.2084L9.84038 21.7899Z" fill="#61F908"/>
<path d="M2.62754 34.1238H1.26927L0 32.8495V30.4984V28.6975V26.3511L1.26927 25.0768H2.62754L4.11694 23.5815V29.2617V29.9388V35.6191L2.62754 34.1238Z" fill="#61F908"/>
<path opacity="0.1" d="M232.717 4.83386H17.2969V55.1238H232.717V4.83386Z" fill="#61F908"/>
</svg>
