<svg width="36" height="36" viewBox="0 0 36 36" xmlns="http://www.w3.org/2000/svg">
<g clip-path="url(#clip0_23_97)">
<path d="M13.8749 0H2.62491C1.17746 0 0 1.17746 0 2.62491V9.37491C0 10.8226 1.17746 12.0001 2.62491 12.0001H13.8749C15.3226 12.0001 16.5001 10.8226 16.5001 9.37491V2.62491C16.5001 1.17746 15.3226 0 13.8749 0Z" fill="white"/>
<path d="M13.8749 14.9999H2.62491C1.17746 14.9999 0 16.1774 0 17.6251V33.3751C0 34.8225 1.17746 36 2.62491 36H13.8749C15.3226 36 16.5001 34.8225 16.5001 33.3751V17.6251C16.5001 16.1774 15.3226 14.9999 13.8749 14.9999Z" fill="white"/>
<path d="M33.3751 23.9999H22.1251C20.6774 23.9999 19.4999 25.1774 19.4999 26.6251V33.3751C19.4999 34.8225 20.6774 36 22.1251 36H33.3751C34.8225 36 36 34.8225 36 33.3751V26.6251C36 25.1774 34.8225 23.9999 33.3751 23.9999Z" fill="white"/>
<path d="M33.3751 0H22.1251C20.6774 0 19.4999 1.17746 19.4999 2.62491V18.3749C19.4999 19.8226 20.6774 21.0001 22.1251 21.0001H33.3751C34.8225 21.0001 36 19.8226 36 18.3749V2.62491C36 1.17746 34.8225 0 33.3751 0V0Z" fill="white"/>
</g>
<defs>
<clipPath id="clip0_23_97">
<rect width="36" height="36" fill="white"/>
</clipPath>
</defs>
</svg>
