<svg width="36" height="36" viewBox="0 0 36 36" fill="none" xmlns="http://www.w3.org/2000/svg">
<rect opacity="0.2" width="36" height="36" rx="8" fill="#53555C"/>
<path d="M25.8057 11.6709C23.9367 10.1668 20.9799 9.91187 20.8533 9.9027C20.657 9.88619 20.4699 9.99625 20.3892 10.1778C20.3819 10.1888 20.3177 10.3374 20.2462 10.5685C21.4824 10.7776 23.0012 11.1977 24.375 12.0506C24.5951 12.1863 24.663 12.4761 24.5273 12.6962C24.4374 12.8412 24.2852 12.92 24.1274 12.92C24.043 12.92 23.9568 12.8962 23.8798 12.8485C21.5173 11.3829 18.5678 11.3096 17.9992 11.3096C17.4306 11.3096 14.4793 11.3829 12.1186 12.8485C11.8985 12.9861 11.6087 12.9182 11.473 12.6981C11.3354 12.4761 11.4033 12.1882 11.6234 12.0506C12.9972 11.1995 14.516 10.7776 15.7523 10.5704C15.6807 10.3374 15.6165 10.1907 15.611 10.1778C15.5285 9.99625 15.3432 9.88252 15.1451 9.9027C15.0186 9.91187 12.0618 10.1668 10.167 11.6911C9.17836 12.6064 7.19922 17.955 7.19922 22.5791C7.19922 22.6617 7.22123 22.7405 7.26158 22.8121C8.62626 25.2113 12.3516 25.8386 13.2008 25.8661C13.2045 25.8661 13.21 25.8661 13.2155 25.8661C13.3659 25.8661 13.5072 25.7945 13.5952 25.6735L14.4536 24.4922C12.137 23.8943 10.9539 22.8781 10.886 22.8176C10.6916 22.647 10.6733 22.3498 10.8457 22.1554C11.0163 21.961 11.3134 21.9426 11.5078 22.1132C11.5354 22.1389 13.7144 23.9878 17.9992 23.9878C22.2913 23.9878 24.4704 22.1316 24.4924 22.1132C24.6869 21.9445 24.9822 21.961 25.1546 22.1573C25.3252 22.3517 25.3068 22.647 25.1124 22.8176C25.0445 22.8781 23.8614 23.8943 21.5448 24.4922L22.4032 25.6735C22.4913 25.7945 22.6325 25.8661 22.7829 25.8661C22.7884 25.8661 22.7939 25.8661 22.7976 25.8661C23.6468 25.8386 27.3722 25.2113 28.7369 22.8121C28.7772 22.7405 28.7992 22.6617 28.7992 22.5791C28.7992 17.955 26.8201 12.6064 25.8057 11.6709ZM14.947 20.7009C14.0391 20.7009 13.3036 19.8608 13.3036 18.8226C13.3036 17.7844 14.0391 16.9443 14.947 16.9443C15.855 16.9443 16.5905 17.7844 16.5905 18.8226C16.5905 19.8608 15.855 20.7009 14.947 20.7009ZM21.0514 20.7009C20.1434 20.7009 19.4079 19.8608 19.4079 18.8226C19.4079 17.7844 20.1434 16.9443 21.0514 16.9443C21.9593 16.9443 22.6949 17.7844 22.6949 18.8226C22.6949 19.8608 21.9593 20.7009 21.0514 20.7009Z" fill="#61F908"/>
</svg>
