<svg width="30" height="30" viewBox="0 0 30 30" xmlns="http://www.w3.org/2000/svg">
<path d="M27.421 13.5602C27.3679 13.4331 27.2918 13.3175 27.195 13.2206L24.0708 10.0967C23.6635 9.69043 23.0051 9.69043 22.5978 10.0967C22.1905 10.504 22.1905 11.1633 22.5978 11.5696L23.9448 12.9164H18.1257C17.5496 12.9164 17.084 13.3831 17.084 13.9581C17.084 14.5331 17.5496 14.9997 18.1257 14.9997H23.9447L22.5978 16.3466C22.1905 16.7539 22.1905 17.4133 22.5978 17.8195C22.8009 18.0237 23.0676 18.1247 23.3343 18.1247C23.601 18.1247 23.8677 18.0237 24.0708 17.8195L27.195 14.6955C27.2918 14.5997 27.3679 14.4841 27.421 14.3559C27.5262 14.1019 27.5262 13.8144 27.421 13.5602Z"/>
<path d="M20.2092 17.0833C19.6332 17.0833 19.1675 17.55 19.1675 18.125V23.3333H15.0006V6.66664C15.0006 6.20727 14.6985 5.80102 14.2579 5.66874L10.64 4.58335H19.1675V9.79169C19.1675 10.3667 19.6332 10.8333 20.2092 10.8333C20.7853 10.8333 21.2509 10.3667 21.2509 9.79169V3.5417C21.2509 2.96665 20.7853 2.5 20.2092 2.5H3.5417C3.5042 2.5 3.47085 2.51562 3.43442 2.51978C3.38545 2.525 3.34067 2.5333 3.29379 2.54478C3.18441 2.5729 3.08543 2.61562 2.99275 2.67393C2.96985 2.68853 2.94172 2.68955 2.91985 2.7062C2.91145 2.7125 2.90832 2.72397 2.89997 2.73022C2.78644 2.81977 2.69166 2.92915 2.62291 3.05937C2.60831 3.0875 2.60518 3.11772 2.59375 3.14687C2.5604 3.22602 2.52398 3.30312 2.51148 3.39062C2.50625 3.42187 2.51563 3.45102 2.5146 3.48125C2.51357 3.5021 2.5 3.52085 2.5 3.54165V24.375C2.5 24.8718 2.85104 25.2989 3.33754 25.3958L13.7547 27.4792C13.8225 27.4938 13.8912 27.5 13.9589 27.5C14.1974 27.5 14.4318 27.4177 14.6193 27.2635C14.86 27.0656 15.0006 26.7708 15.0006 26.4583V25.4167H20.2092C20.7853 25.4167 21.2509 24.95 21.2509 24.375V18.125C21.2509 17.55 20.7853 17.0833 20.2092 17.0833Z"/>
</svg>
