<svg width="72" height="72" viewBox="0 0 72 72" fill="none" xmlns="http://www.w3.org/2000/svg">
<rect x="1" y="1" width="70" height="70" rx="35" stroke="url(#paint0_linear_235_64)" stroke-width="2"/>
<path fill-rule="evenodd" clip-rule="evenodd" d="M39.3333 24.3333C38.8913 24.3333 38.4673 24.5089 38.1548 24.8215C37.8422 25.134 37.6666 25.5579 37.6666 26C37.6666 26.442 37.8422 26.8659 38.1548 27.1785C38.4673 27.491 38.8913 27.6666 39.3333 27.6666C39.7753 27.6666 40.1992 27.491 40.5118 27.1785C40.8244 26.8659 41 26.442 41 26C41 25.5579 40.8244 25.134 40.5118 24.8215C40.1992 24.5089 39.7753 24.3333 39.3333 24.3333ZM34.3333 26C34.3333 24.916 34.6855 23.8613 35.337 22.995C35.9884 22.1286 36.9038 21.4974 37.9452 21.1964C38.9866 20.8955 40.0976 20.9411 41.1107 21.3265C42.1239 21.7118 42.9844 22.416 43.5626 23.3329C44.1408 24.2498 44.4054 25.3298 44.3164 26.4101C44.2275 27.4905 43.7899 28.5126 43.0695 29.3226C42.3491 30.1326 41.385 30.6866 40.3225 30.9011C39.2599 31.1155 38.1564 30.9788 37.1783 30.5116L33.845 33.845C34.1583 34.4966 34.3333 35.2283 34.3333 36C34.3333 36.7716 34.1583 37.5033 33.845 38.155L37.1783 41.4883C38.2426 40.9799 39.4524 40.8642 40.5938 41.1615C41.7352 41.4589 42.7347 42.1501 43.4158 43.1132C44.0968 44.0762 44.4154 45.249 44.3153 46.4243C44.2152 47.5995 43.7029 48.7015 42.8689 49.5356C42.0349 50.3696 40.9328 50.8819 39.7576 50.982C38.5823 51.0821 37.4095 50.7635 36.4465 50.0824C35.4834 49.4014 34.7922 48.4019 34.4948 47.2605C34.1975 46.1191 34.3132 44.9093 34.8216 43.845L31.4883 40.5116C30.7261 40.8754 29.8843 41.0401 29.0412 40.9905C28.1982 40.9409 27.3814 40.6786 26.6672 40.228C25.9529 39.7775 25.3644 39.1533 24.9566 38.4139C24.5487 37.6744 24.3348 36.8436 24.3348 35.9991C24.3348 35.1546 24.5487 34.3239 24.9566 33.5844C25.3644 32.8449 25.9529 32.2208 26.6672 31.7702C27.3814 31.3197 28.1982 31.0574 29.0412 31.0078C29.8843 30.9582 30.7261 31.1229 31.4883 31.4866L34.8216 28.155C34.4996 27.4822 34.3328 26.7458 34.3333 26ZM29.3333 34.3333C28.8913 34.3333 28.4673 34.5089 28.1548 34.8215C27.8422 35.134 27.6666 35.5579 27.6666 36C27.6666 36.442 27.8422 36.8659 28.1548 37.1785C28.4673 37.491 28.8913 37.6666 29.3333 37.6666C29.7753 37.6666 30.1992 37.491 30.5118 37.1785C30.8244 36.8659 31 36.442 31 36C31 35.5579 30.8244 35.134 30.5118 34.8215C30.1992 34.5089 29.7753 34.3333 29.3333 34.3333ZM39.3333 44.3333C39.1144 44.3328 38.8975 44.3757 38.6952 44.4595C38.493 44.5433 38.3094 44.6664 38.155 44.8216C37.8823 45.0943 37.7127 45.4531 37.675 45.8369C37.6372 46.2206 37.7337 46.6056 37.948 46.9262C38.1623 47.2467 38.4811 47.4831 38.8501 47.595C39.2191 47.7068 39.6155 47.6873 39.9717 47.5397C40.3279 47.392 40.622 47.1255 40.8037 46.7854C40.9854 46.4453 41.0435 46.0527 40.9682 45.6745C40.8929 45.2963 40.6888 44.956 40.3907 44.7114C40.0926 44.4668 39.7189 44.3332 39.3333 44.3333Z" fill="white"/>
<defs>
<linearGradient id="paint0_linear_235_64" x1="0" y1="36" x2="72" y2="36" gradientUnits="userSpaceOnUse">
<stop stop-color="#61F908"/>
<stop offset="1" stop-color="#3DBFBB"/>
</linearGradient>
</defs>
</svg>
