<svg width="72" height="72" viewBox="0 0 72 72" fill="none" xmlns="http://www.w3.org/2000/svg">
<rect x="1" y="1" width="70" height="70" rx="35" stroke="url(#paint0_linear_235_73)" stroke-width="2"/>
<g style="mix-blend-mode:exclusion">
<path fill-rule="evenodd" clip-rule="evenodd" d="M42.3167 19.355C42.5312 18.9701 42.8894 18.6859 43.3129 18.5644C43.7364 18.4429 44.1908 18.494 44.5767 18.7066L52.6383 23.15C52.8306 23.256 53 23.3991 53.1367 23.5708C53.2735 23.7425 53.3751 23.9396 53.4355 24.1507C53.4959 24.3618 53.514 24.5827 53.4887 24.8008C53.4635 25.019 53.3954 25.2299 53.2883 25.4216L50.6083 30.23C48.8626 33.3682 46.0142 35.7468 42.615 36.905L52.4767 42.34C52.669 42.4459 52.8386 42.5888 52.9756 42.7605C53.1125 42.9322 53.2142 43.1292 53.2748 43.3403C53.3353 43.5514 53.3536 43.7724 53.3284 43.9906C53.3033 44.2088 53.2353 44.4198 53.1283 44.6116L48.6617 52.6283C48.4469 53.0133 48.0883 53.2975 47.6644 53.4187C47.2405 53.5399 46.7859 53.4882 46.4 53.275L35.1167 47.055C34.6475 46.7952 34.0947 46.7315 33.5788 46.878C33.0629 47.0245 32.626 47.3691 32.3633 47.8366L29.6833 52.6433C29.4688 53.0281 29.1106 53.3124 28.6871 53.4339C28.2636 53.5554 27.8092 53.5042 27.4233 53.2916L19.3617 48.85C19.1694 48.7439 19.0001 48.6009 18.8633 48.4291C18.7265 48.2574 18.6249 48.0603 18.5645 47.8492C18.5041 47.6381 18.4861 47.4172 18.5113 47.1991C18.5365 46.981 18.6046 46.77 18.7117 46.5783L21.3917 41.77C23.1374 38.6317 25.9858 36.2531 29.385 35.095L19.5233 29.66C19.331 29.554 19.1614 29.4111 19.0245 29.2394C18.8875 29.0678 18.7858 28.8707 18.7253 28.6596C18.6647 28.4485 18.6465 28.2275 18.6716 28.0093C18.6967 27.7912 18.7647 27.5801 18.8717 27.3883L23.3383 19.3716C23.5531 18.9866 23.9117 18.7024 24.3356 18.5812C24.7595 18.46 25.2141 18.5117 25.6 18.725L36.885 24.945C37.8667 25.4866 39.0983 25.1283 39.635 24.165L42.3183 19.355H42.3167ZM44.4217 22.4266L42.5483 25.7866C41.8564 27.0231 40.7033 27.9356 39.341 28.325C37.9786 28.7143 36.5175 28.549 35.2767 27.865L25.4433 22.445L22.6 27.5483L32.4183 32.96C37.8517 35.955 44.6933 33.9983 47.6983 28.6066L49.565 25.26L44.4233 22.4266H44.4217ZM39.5833 39.04C34.15 36.045 27.3083 38.0016 24.3033 43.3933L22.4367 46.74L27.58 49.5733L29.4533 46.2133C30.145 44.9765 31.298 44.0637 32.6605 43.6743C34.023 43.2849 35.4842 43.4505 36.725 44.135L46.5567 49.555L49.4017 44.4516L39.5833 39.04Z" fill="white"/>
</g>
<defs>
<linearGradient id="paint0_linear_235_73" x1="0" y1="36" x2="72" y2="36" gradientUnits="userSpaceOnUse">
<stop stop-color="#61F908"/>
<stop offset="1" stop-color="#3DBFBB"/>
</linearGradient>
</defs>
</svg>
