<svg width="72" height="72" viewBox="0 0 72 72" fill="none" xmlns="http://www.w3.org/2000/svg">
<rect x="1" y="1" width="70" height="70" rx="35" stroke="url(#paint0_linear_235_55)" stroke-width="2"/>
<path fill-rule="evenodd" clip-rule="evenodd" d="M35.045 17.9666C35.3249 17.7709 35.6583 17.6659 36 17.6659C36.3416 17.6659 36.675 17.7709 36.955 17.9666L53.6216 29.6331C53.8415 29.7868 54.021 29.9913 54.1449 30.2292C54.2688 30.4671 54.3334 30.7315 54.3333 30.9997V42.6662C54.3334 42.9344 54.2688 43.1987 54.1449 43.4367C54.021 43.6746 53.8415 43.8791 53.6216 44.0328L36.955 55.6993C36.675 55.895 36.3416 56 36 56C35.6583 56 35.3249 55.895 35.045 55.6993L18.3783 44.0328C18.1584 43.8791 17.9789 43.6746 17.855 43.4367C17.7311 43.1987 17.6665 42.9344 17.6666 42.6662V30.9997C17.6665 30.7315 17.7311 30.4671 17.855 30.2292C17.9789 29.9913 18.1584 29.7868 18.3783 29.6331L35.045 17.9666ZM21 34.1997V39.4662L24.76 36.8329L21 34.1997ZM27.6666 38.8662L22.24 42.6662L34.3333 51.1327V43.5328L27.6666 38.8662ZM37.6666 43.5328V51.1327L49.76 42.6662L44.3333 38.8662L37.6666 43.5328ZM47.24 36.8329L51 39.4662V34.1997L47.24 36.8329ZM49.76 30.9997L44.3333 34.7997L37.6666 30.1331V22.5332L49.76 30.9997ZM34.3333 22.5332V30.1331L27.6666 34.7997L22.24 30.9997L34.3333 22.5332ZM36 33.033L30.5733 36.8329L36 40.6329L41.4266 36.8329L36 33.033Z" fill="white"/>
<defs>
<linearGradient id="paint0_linear_235_55" x1="0" y1="36" x2="72" y2="36" gradientUnits="userSpaceOnUse">
<stop stop-color="#61F908"/>
<stop offset="1" stop-color="#3DBFBB"/>
</linearGradient>
</defs>
</svg>
