<svg width="72" height="72" viewBox="0 0 72 72" fill="none" xmlns="http://www.w3.org/2000/svg">
<rect x="1" y="1" width="70" height="70" rx="35" stroke="url(#paint0_linear_235_44)" stroke-width="2"/>
<path fill-rule="evenodd" clip-rule="evenodd" d="M29.0283 20.955C29.207 20.4788 29.5268 20.0683 29.9449 19.7786C30.363 19.4888 30.8596 19.3335 31.3683 19.3334H40.63C41.139 19.3332 41.6359 19.4883 42.0544 19.7781C42.4728 20.0679 42.7928 20.4785 42.9716 20.955L52.9716 47.6217C53.1136 48 53.1618 48.4071 53.112 48.8081C53.0622 49.2092 52.9159 49.5921 52.6857 49.9242C52.4555 50.2563 52.1482 50.5277 51.7902 50.7151C51.4322 50.9024 51.0341 51.0002 50.63 51H44.7016C44.1929 50.9999 43.6964 50.8446 43.2783 50.5548C42.8601 50.2651 42.5404 49.8547 42.3616 49.3784L36 32.4134L32.78 41H36.055C36.564 40.9998 37.0609 41.155 37.4794 41.4448C37.8978 41.7346 38.2178 42.1452 38.3966 42.6217L40.2716 47.6217C40.4136 48 40.4618 48.4071 40.412 48.8081C40.3622 49.2092 40.2159 49.5921 39.9857 49.9242C39.7555 50.2563 39.4482 50.5277 39.0902 50.7151C38.7322 50.9024 38.3341 51.0002 37.93 51H21.37C20.966 50.9999 20.5681 50.902 20.2103 50.7145C19.8525 50.527 19.5455 50.2556 19.3155 49.9235C19.0854 49.5915 18.9393 49.2086 18.8896 48.8077C18.8399 48.4069 18.8881 47.9999 19.03 47.6217L29.03 20.955H29.0283ZM31.945 22.6667L22.5733 47.6667H36.73L35.48 44.3334H30.375C30.1057 44.3333 29.8406 44.268 29.6021 44.143C29.3636 44.018 29.1589 43.8372 29.0056 43.6159C28.8523 43.3946 28.7549 43.1394 28.7217 42.8722C28.6885 42.6051 28.7205 42.3338 28.815 42.0817L34.44 27.0817C34.5593 26.7644 34.7726 26.491 35.0513 26.2981C35.33 26.1051 35.661 26.0017 36 26.0017C36.339 26.0017 36.6699 26.1051 36.9487 26.2981C37.2274 26.491 37.4407 26.7644 37.56 27.0817L45.28 47.6667H49.4283L40.0533 22.6667H31.9466H31.945Z" fill="white"/>
<defs>
<linearGradient id="paint0_linear_235_44" x1="0" y1="36" x2="72" y2="36" gradientUnits="userSpaceOnUse">
<stop stop-color="#61F908"/>
<stop offset="1" stop-color="#3DBFBB"/>
</linearGradient>
</defs>
</svg>
