<svg width="50" height="50" viewBox="0 0 50 50" xmlns="http://www.w3.org/2000/svg">
<path fill-rule="evenodd" clip-rule="evenodd" d="M4.17323 6.25596C3.89784 6.25491 3.62498 6.30837 3.37035 6.41327C3.11573 6.51817 2.88439 6.67243 2.68966 6.86716C2.49494 7.06188 2.34068 7.29322 2.23578 7.54785C2.13088 7.80247 2.07741 8.07534 2.07846 8.35072V41.7325C2.07741 42.0079 2.13088 42.2807 2.23578 42.5353C2.34068 42.79 2.49494 43.0213 2.68966 43.216C2.88439 43.4108 3.11573 43.565 3.37035 43.6699C3.62498 43.7748 3.89784 43.8283 4.17323 43.8272H29.2207H45.9014C46.1768 43.8283 46.4497 43.7748 46.7043 43.6699C46.9589 43.565 47.1903 43.4108 47.385 43.216C47.5797 43.0213 47.734 42.79 47.8389 42.5353C47.9438 42.2807 47.9972 42.0079 47.9962 41.7325V25.0355C47.9956 24.7611 47.941 24.4896 47.8354 24.2364C47.7297 23.9832 47.5752 23.7533 47.3807 23.5598C47.1861 23.3664 46.9553 23.2132 46.7015 23.1091C46.4477 23.005 46.1758 22.9519 45.9014 22.9529H39.6497V8.35072C39.6508 8.07499 39.5972 7.80179 39.492 7.5469C39.3869 7.29201 39.2323 7.06048 39.0371 6.8657C38.8419 6.67092 38.6101 6.51675 38.355 6.41209C38.0999 6.30743 37.8266 6.25437 37.5509 6.25596H4.17323ZM6.25169 10.4333H10.429V16.7013C10.4312 17.2546 10.6531 17.7845 11.046 18.1743C11.4388 18.564 11.9704 18.7818 12.5238 18.7797H29.2207C29.7713 18.7775 30.2987 18.5578 30.688 18.1685C31.0773 17.7792 31.297 17.2518 31.2992 16.7013V10.4333H35.4724V22.9529H29.2207C28.9464 22.9519 28.6745 23.005 28.4207 23.1091C28.1669 23.2132 27.9361 23.3664 27.7415 23.5598C27.547 23.7533 27.3924 23.9832 27.2868 24.2364C27.1812 24.4896 27.1265 24.7611 27.126 25.0355V39.6499H6.25169V10.4333ZM14.6022 10.4333H27.126V14.6065H14.6022V10.4333ZM31.2992 27.1302H43.823V39.6499H31.2992V27.1302Z"/>
</svg>
