<svg width="40" height="40" viewBox="0 0 40 40" xmlns="http://www.w3.org/2000/svg">
<path fill-rule="evenodd" clip-rule="evenodd" d="M19.4286 2.32971C19.4286 5.16854 19.8811 6.26263 21.3714 7.02741C22.1909 7.44808 22.7829 7.51206 25.8498 7.51206C28.6786 7.51206 29.4855 7.58742 29.8919 7.88935C30.5385 8.3694 30.5641 9.51899 29.9429 10.1776C29.5237 10.622 29.181 10.6623 25.8059 10.6623C21.6999 10.6623 20.9573 10.861 20.0571 12.2013C19.6875 12.7516 19.5282 13.3964 19.464 14.6039C19.3771 16.2326 19.3648 16.2605 18.523 16.7158C17.6117 17.2084 17.0272 17.9761 16.7856 18.9973C16.6487 19.5757 16.6953 19.6283 17.3467 19.6283C17.8352 19.6283 18.0571 19.5112 18.0571 19.2539C18.0571 18.548 19.1232 17.6897 20 17.6897C20.8768 17.6897 21.9429 18.548 21.9429 19.2539C21.9429 19.5083 22.1625 19.6283 22.6286 19.6283C23.4377 19.6283 23.4667 19.441 22.8542 18.168C22.5563 17.5491 22.0722 17.0376 21.4827 16.7187C20.6226 16.2537 20.5714 16.1642 20.5714 15.1283C20.5714 14.5247 20.7275 13.711 20.9182 13.3198C21.5317 12.0622 22.2169 11.8739 26.1819 11.8739C29.1115 11.8739 29.8747 11.8007 30.4039 11.4695C32.2903 10.2879 31.9927 7.14397 29.9214 6.37459C29.4567 6.20205 27.7344 6.07992 25.6491 6.07168C20.8992 6.05326 20.5714 5.78404 20.5714 1.90249C20.5714 0.0346528 20.5609 0 20 0C19.4302 0 19.4286 0.00629998 19.4286 2.32971ZM0 24.7171V27.3827H2.4H4.8V24.7171V22.0515H2.4H0V24.7171ZM5.86674 22.2132C5.78286 22.3018 5.71429 23.5013 5.71429 24.8787V27.3827H8.22857H10.7429V24.7171V22.0515H8.38103C7.08183 22.0515 5.9504 22.1242 5.86674 22.2132ZM11.6571 24.7171V27.3827H14.1714H16.6857V24.7171V22.0515H14.1714H11.6571V24.7171ZM17.6 24.7171V27.3827H20H22.4V24.7171V22.0515H20H17.6V24.7171ZM23.3143 24.7171V27.3827H25.8286H28.3429V24.7171V22.0515H25.8286H23.3143V24.7171ZM35.2 24.7171V27.3827H37.6H40V24.7171V22.0515H37.6H35.2V24.7171ZM29.4857 24.7171V27.1403H31.7714H34.0571V24.7171V22.2938H31.7714H29.4857V24.7171ZM3.65714 24.8382V26.171H2.4H1.14286V24.8382V23.5055H2.4H3.65714V24.8382ZM9.55474 24.7777L9.48571 26.0499L8.28571 26.1231L7.08571 26.1965V24.8509V23.5055H8.35474H9.624L9.55474 24.7777ZM15.3143 24.8509V26.1965L14.1143 26.1231L12.9143 26.0499L12.8453 24.7777L12.776 23.5055H14.0453H15.3143V24.8509ZM21.2571 24.8382V26.171H20H18.7429V24.8382V23.5055H20H21.2571V24.8382ZM27.1547 24.7777L27.0857 26.0499L25.8857 26.1231L24.6857 26.1965V24.8509V23.5055H25.9547H27.224L27.1547 24.7777ZM32.9143 24.7171V25.9287H31.7714H30.6286V24.7171V23.5055H31.7714H32.9143V24.7171ZM38.8119 24.7777L38.7429 26.0499L37.5429 26.1231L36.3429 26.1965V24.8509V23.5055H37.6119H38.8811L38.8119 24.7777ZM0 31.0175V33.6831H2.4H4.8V31.0175V28.352H2.4H0V31.0175ZM5.71429 31.0175V33.6831H8.22857H10.7429V31.0175V28.352H8.22857H5.71429V31.0175ZM11.6571 31.0175V33.6831H14.1714H16.6857V31.0175V28.352H14.1714H11.6571V31.0175ZM17.6 31.0175V33.6831H20H22.4V31.0175V28.352H20H17.6V31.0175ZM23.3143 31.0175V33.6831H25.8286H28.3429V31.0175V28.352H25.8286H23.3143V31.0175ZM29.2571 31.0175V33.6831H31.6571H34.0571V31.0175V28.352H31.6571H29.2571V31.0175ZM35.2 31.0175V33.6831H37.6H40V31.0175V28.352H37.6H35.2V31.0175ZM3.61189 30.9569L3.68114 32.2291H2.41189H1.14286V31.058C1.14286 30.4137 1.21623 29.809 1.30583 29.7141C1.39543 29.6191 1.93531 29.5735 2.50583 29.613L3.54286 29.6847L3.61189 30.9569ZM9.55474 30.9569L9.624 32.2291H8.35474H7.08571V30.8838V29.5381L8.28571 29.6116L9.48571 29.6847L9.55474 30.9569ZM15.3143 30.8964V32.2291H14.0571H12.8V31.058C12.8 30.4137 12.8686 29.8139 12.9525 29.7252C13.0361 29.6363 13.6018 29.5636 14.2096 29.5636H15.3143V30.8964ZM21.2119 30.9569L21.2811 32.2291H20.0119H18.7429V31.058C18.7429 30.4137 18.8162 29.809 18.9058 29.7141C18.9954 29.6191 19.5353 29.5735 20.1058 29.613L21.1429 29.6847L21.2119 30.9569ZM27.1547 30.9569L27.224 32.2291H25.9547H24.6857V30.8838V29.5381L25.8857 29.6116L27.0857 29.6847L27.1547 30.9569ZM32.869 30.9569L32.9383 32.2291H31.669H30.4V31.058C30.4 30.4137 30.4734 29.809 30.563 29.7141C30.6526 29.6191 31.1925 29.5735 31.763 29.613L32.8 29.6847L32.869 30.9569ZM38.8119 30.9569L38.8811 32.2291H37.6119H36.3429V30.8838V29.5381L37.5429 29.6116L38.7429 29.6847L38.8119 30.9569ZM0 37.318V39.9835H2.4H4.8V37.318V34.6524H2.4H0V37.318ZM5.76366 37.2574L5.82857 39.8624L8.28571 39.9312L10.7429 40V37.3262V34.6524H8.2208H5.69874L5.76366 37.2574ZM11.6571 37.318V39.9835H20H28.3429V37.318V34.6524H20H11.6571V37.318ZM29.2571 37.318V39.9835H31.6571H34.0571V37.318V34.6524H31.6571H29.2571V37.318ZM35.2 37.1968V39.7412H37.6H40V37.1968V34.6524H37.6H35.2V37.1968ZM3.65714 37.1968V38.5296H2.4H1.14286V37.1968V35.864H2.4H3.65714V37.1968ZM9.6 37.1968V38.5296H8.34286H7.08571V37.1968V35.864H8.34286H9.6V37.1968ZM27.1547 37.2574L27.224 38.5296H20.0119H12.8V37.1934V35.8572L19.9429 35.9212L27.0857 35.9852L27.1547 37.2574ZM32.9143 37.1968V38.5296H31.6571H30.4V37.1968V35.864H31.6571H32.9143V37.1968ZM38.8571 37.1968V38.5296H37.6H36.3429V37.1968V35.864H37.6H38.8571V37.1968Z" fill="#61F908"/>
</svg>
