<svg width="50" height="50" viewBox="0 0 50 50" xmlns="http://www.w3.org/2000/svg">
<g clip-path="url(#clip0_25_331)">
<path d="M36.2704 8.18496C36.0776 7.59287 35.5654 7.16104 34.95 7.07168L29.0922 6.22031L26.4716 0.911523C26.197 0.353516 25.6283 0 25.0054 0C24.3824 0 23.8138 0.353516 23.5391 0.911523L20.9185 6.22041L15.0597 7.07178C14.4441 7.16123 13.9319 7.59297 13.7393 8.18506C13.5466 8.77715 13.7073 9.42725 14.1535 9.86172L18.3938 13.9939L17.3919 19.8283C17.2864 20.4422 17.5389 21.0625 18.0426 21.4283C18.5474 21.7957 19.215 21.8409 19.7655 21.5529L25.0058 18.7981L30.2449 21.5529C30.8081 21.8483 31.4731 21.7874 31.9679 21.4283C32.4715 21.0626 32.7239 20.4423 32.6186 19.8289L31.6176 13.9939L35.8568 9.86172C36.3024 9.42725 36.4621 8.77705 36.2704 8.18496Z" fill="#53555C"/>
<path d="M31.5425 24.9204H18.4575C17.5542 24.9204 16.8219 25.6527 16.8219 26.5561V50H33.1781V26.5561C33.1781 25.6527 32.4458 24.9204 31.5425 24.9204Z" fill="#53555C"/>
<path d="M2.10127 31.4629C1.19795 31.4629 0.465622 32.1952 0.465622 33.0985V48.7068C0.465622 49.4211 1.04463 50 1.75879 50H13.5507V31.4629H2.10127Z" fill="#53555C"/>
<path d="M47.8987 38.0054H36.4494V50H48.2413C48.9556 50 49.5345 49.421 49.5345 48.7068V39.641C49.5344 38.7377 48.802 38.0054 47.8987 38.0054Z" fill="#53555C"/>
</g>
<defs>
<clipPath id="clip0_25_331">
<rect width="50" height="50" fill="white"/>
</clipPath>
</defs>
</svg>
