<svg width="31" height="40" viewBox="0 0 31 40" fill="none" xmlns="http://www.w3.org/2000/svg">
<path d="M30.1456 15H27.6456V11.6666C27.6456 5.23359 22.4121 0 15.979 0C9.54588 0 4.31236 5.23359 4.31236 11.6666V15H1.81236C1.35174 15 0.979004 15.3727 0.979004 15.8334V36.6667C0.979004 38.5051 2.47393 40 4.31236 40H27.6457C29.4841 40 30.979 38.5051 30.979 36.6666V15.8334C30.979 15.3727 30.6063 15 30.1456 15ZM18.4742 32.408C18.5002 32.6432 18.4246 32.8792 18.2667 33.0559C18.1088 33.2324 17.8825 33.3334 17.6457 33.3334H14.3124C14.0756 33.3334 13.8493 33.2324 13.6914 33.0559C13.5335 32.8793 13.4578 32.6433 13.4839 32.408L14.0096 27.6807C13.156 27.0598 12.6457 26.0775 12.6457 25C12.6457 23.1616 14.1406 21.6666 15.9791 21.6666C17.8175 21.6666 19.3124 23.1616 19.3124 25C19.3124 26.0775 18.8022 27.0598 17.9485 27.6807L18.4742 32.408ZM22.6456 15H9.31236V11.6666C9.31236 7.9907 12.3031 5 15.979 5C19.6549 5 22.6456 7.9907 22.6456 11.6666V15Z" fill="white"/>
</svg>
