<svg width="188" height="57" viewBox="0 0 188 57" fill="none" xmlns="http://www.w3.org/2000/svg">
<path d="M62.96 21.6H54.6V17H76.76V21.6H68.4V45H62.96V21.6ZM78.9194 38.88L93.3194 25.8V22.96L91.9994 21.64H85.5194L84.1994 22.96V25.8H78.7594V21.32L83.0794 17H94.4394L98.7594 21.32V27.4L84.5594 40.04V40.44H98.9194V45H78.9194V38.88ZM102.928 17H123.168V21.6H108.368V28.68H122.008V33.2H108.368V40.4H123.168V45H102.928V17ZM126.386 41.32V36.76L130.066 33.08H140.186V30.56L138.946 29.32H132.946L131.746 30.56V31.68H126.546V29.4L130.826 25.08H141.106L145.386 29.4V45H140.626V42.16L137.666 45H130.066L126.386 41.32ZM137.306 40.92L140.186 38.16V36.84H132.666L131.586 37.92V39.92L132.586 40.92H137.306ZM149.994 25.08H154.874V28.4L158.074 25.08H163.754V29.56H159.154L155.274 33.56V45H149.994V25.08ZM166.361 25.08H171.241V28.4L174.561 25.08H181.001L185.441 29.52V45H180.161V30.96L178.801 29.56H175.441L171.641 33.4V45H166.361V25.08Z" fill="#61F908"/>
<path fill-rule="evenodd" clip-rule="evenodd" d="M21.8571 2.44619C21.8571 5.42696 22.3663 6.57576 24.0429 7.37878C24.9647 7.82049 25.6307 7.88766 29.0811 7.88766C32.2635 7.88766 33.1712 7.96679 33.6284 8.28382C34.3558 8.78787 34.3846 9.99494 33.6857 10.6865C33.2141 11.1531 32.8287 11.1954 29.0317 11.1954C24.4124 11.1954 23.5769 11.404 22.5643 12.8113C22.1485 13.3892 21.9693 14.0662 21.897 15.3341C21.7993 17.0442 21.7854 17.0735 20.8383 17.5516C19.8131 18.0688 19.1556 18.8749 18.8838 19.9471C18.7298 20.5545 18.7822 20.6097 19.5151 20.6097C20.0646 20.6097 20.3143 20.4868 20.3143 20.2166C20.3143 19.4754 21.5136 18.5742 22.5 18.5742C23.4864 18.5742 24.6857 19.4754 24.6857 20.2166C24.6857 20.4837 24.9328 20.6097 25.4571 20.6097C26.3674 20.6097 26.4001 20.413 25.7109 19.0764C25.3759 18.4266 24.8313 17.8895 24.1681 17.5546C23.2005 17.0663 23.1429 16.9725 23.1429 15.8847C23.1429 15.2509 23.3185 14.3965 23.5329 13.9858C24.2231 12.6653 24.994 12.4676 29.4547 12.4676C32.7505 12.4676 33.6091 12.3907 34.2044 12.0429C36.3266 10.8023 35.9918 7.50116 33.6615 6.69331C33.1388 6.51215 31.2012 6.38391 28.8553 6.37526C23.5116 6.35593 23.1429 6.07324 23.1429 1.99761C23.1429 0.0363854 23.131 0 22.5 0C21.8589 0 21.8571 0.00661498 21.8571 2.44619ZM0 25.9529V28.7518H2.7H5.4V25.9529V23.1541H2.7H0V25.9529ZM6.60009 23.3238C6.50571 23.4169 6.42857 24.6764 6.42857 26.1227V28.7518H9.25714H12.0857V25.9529V23.1541H9.42866C7.96706 23.1541 6.6942 23.2304 6.60009 23.3238ZM13.1143 25.9529V28.7518H15.9429H18.7714V25.9529V23.1541H15.9429H13.1143V25.9529ZM19.8 25.9529V28.7518H22.5H25.2V25.9529V23.1541H22.5H19.8V25.9529ZM26.2286 25.9529V28.7518H29.0571H31.8857V25.9529V23.1541H29.0571H26.2286V25.9529ZM39.6 25.9529V28.7518H42.3H45V25.9529V23.1541H42.3H39.6V25.9529ZM33.1714 25.9529V28.4973H35.7429H38.3143V25.9529V23.4085H35.7429H33.1714V25.9529ZM4.11429 26.0802V27.4796H2.7H1.28571V26.0802V24.6807H2.7H4.11429V26.0802ZM10.7491 26.0166L10.6714 27.3524L9.32143 27.4292L7.97143 27.5063V26.0934V24.6807H9.39909H10.827L10.7491 26.0166ZM17.2286 26.0934V27.5063L15.8786 27.4292L14.5286 27.3524L14.4509 26.0166L14.373 24.6807H15.8009H17.2286V26.0934ZM23.9143 26.0802V27.4796H22.5H21.0857V26.0802V24.6807H22.5H23.9143V26.0802ZM30.5491 26.0166L30.4714 27.3524L29.1214 27.4292L27.7714 27.5063V26.0934V24.6807H29.1991H30.627L30.5491 26.0166ZM37.0286 25.9529V27.2251H35.7429H34.4571V25.9529V24.6807H35.7429H37.0286V25.9529ZM43.6634 26.0166L43.5857 27.3524L42.2357 27.4292L40.8857 27.5063V26.0934V24.6807H42.3134H43.7413L43.6634 26.0166ZM0 32.5684V35.3672H2.7H5.4V32.5684V29.7696H2.7H0V32.5684ZM6.42857 32.5684V35.3672H9.25714H12.0857V32.5684V29.7696H9.25714H6.42857V32.5684ZM13.1143 32.5684V35.3672H15.9429H18.7714V32.5684V29.7696H15.9429H13.1143V32.5684ZM19.8 32.5684V35.3672H22.5H25.2V32.5684V29.7696H22.5H19.8V32.5684ZM26.2286 32.5684V35.3672H29.0571H31.8857V32.5684V29.7696H29.0571H26.2286V32.5684ZM32.9143 32.5684V35.3672H35.6143H38.3143V32.5684V29.7696H35.6143H32.9143V32.5684ZM39.6 32.5684V35.3672H42.3H45V32.5684V29.7696H42.3H39.6V32.5684ZM4.06337 32.5048L4.14129 33.8406H2.71337H1.28571V32.6109C1.28571 31.9343 1.36826 31.2995 1.46906 31.1998C1.56986 31.1 2.17723 31.0522 2.81906 31.0937L3.98571 31.169L4.06337 32.5048ZM10.7491 32.5048L10.827 33.8406H9.39909H7.97143V32.4279V31.015L9.32143 31.0921L10.6714 31.169L10.7491 32.5048ZM17.2286 32.4412V33.8406H15.8143H14.4V32.6109C14.4 31.9343 14.4771 31.3046 14.5715 31.2115C14.6656 31.1181 15.3021 31.0418 15.9858 31.0418H17.2286V32.4412ZM23.8634 32.5048L23.9413 33.8406H22.5134H21.0857V32.6109C21.0857 31.9343 21.1683 31.2995 21.2691 31.1998C21.3699 31.1 21.9772 31.0522 22.6191 31.0937L23.7857 31.169L23.8634 32.5048ZM30.5491 32.5048L30.627 33.8406H29.1991H27.7714V32.4279V31.015L29.1214 31.0921L30.4714 31.169L30.5491 32.5048ZM36.9777 32.5048L37.0556 33.8406H35.6277H34.2V32.6109C34.2 31.9343 34.2825 31.2995 34.3833 31.1998C34.4841 31.1 35.0915 31.0522 35.7333 31.0937L36.9 31.169L36.9777 32.5048ZM43.6634 32.5048L43.7413 33.8406H42.3134H40.8857V32.4279V31.015L42.2357 31.0921L43.5857 31.169L43.6634 32.5048ZM0 39.1839V41.9827H2.7H5.4V39.1839V36.385H2.7H0V39.1839ZM6.48412 39.1202L6.55714 41.8555L9.32143 41.9277L12.0857 42V39.1925V36.385H9.2484H6.41109L6.48412 39.1202ZM13.1143 39.1839V41.9827H22.5H31.8857V39.1839V36.385H22.5H13.1143V39.1839ZM32.9143 39.1839V41.9827H35.6143H38.3143V39.1839V36.385H35.6143H32.9143V39.1839ZM39.6 39.0566V41.7283H42.3H45V39.0566V36.385H42.3H39.6V39.0566ZM4.11429 39.0566V40.4561H2.7H1.28571V39.0566V37.6572H2.7H4.11429V39.0566ZM10.8 39.0566V40.4561H9.38571H7.97143V39.0566V37.6572H9.38571H10.8V39.0566ZM30.5491 39.1202L30.627 40.4561H22.5134H14.4V39.0531V37.6501L22.4357 37.7173L30.4714 37.7844L30.5491 39.1202ZM37.0286 39.0566V40.4561H35.6143H34.2V39.0566V37.6572H35.6143H37.0286V39.0566ZM43.7143 39.0566V40.4561H42.3H40.8857V39.0566V37.6572H42.3H43.7143V39.0566Z" fill="#61F908"/>
</svg>
