<svg width="50" height="38" viewBox="0 0 50 38" xmlns="http://www.w3.org/2000/svg">
<path d="M43.6506 6.41393C43.6089 6.29107 43.5652 6.09541 43.5132 5.87477C43.1697 4.47782 42.847 3.15797 41.5708 2.67082L35.5127 0.366222C34.3385 -0.0792587 33.0228 0.0809782 31.986 0.803409L31.6113 1.13862C31.3073 1.48632 30.8951 1.92136 30.6016 2.20035H19.4389C19.1911 1.94009 18.8601 1.55707 18.5833 1.21356L18.1503 0.807605C17.1135 0.083125 15.7937 -0.0834549 14.6257 0.366222L8.56125 2.67082C7.29136 3.15377 6.97284 4.45908 6.63343 5.84354C6.58142 6.05384 6.5377 6.2453 6.55429 6.2453C6.55429 6.2453 6.55634 6.2453 6.55849 6.24325C4.49337 10.3153 -5.32878 30.9296 3.86667 37.0149C5.18243 37.8851 6.93322 37.7477 8.13031 36.6776L15.3376 30.2156C15.9726 29.6452 16.7803 29.3308 17.609 29.3308H32.5253C33.3539 29.3308 34.1596 29.6451 34.7966 30.2156L42.0039 36.6776C42.6826 37.2855 43.5278 37.5957 44.373 37.5957C45.0517 37.5957 45.7283 37.3938 46.3133 36.9816C54.4283 31.2878 47.1169 13.6171 43.6506 6.41393ZM33.3227 8.44577C34.4718 8.44577 35.4045 9.3784 35.4045 10.5276C35.4045 11.6768 34.4718 12.6094 33.3227 12.6094C32.1735 12.6094 31.2409 11.6768 31.2409 10.5276C31.2409 9.3784 32.1735 8.44577 33.3227 8.44577ZM20.8316 18.855H18.7498V20.9368C18.7498 22.086 17.8192 23.0186 16.668 23.0186C15.5168 23.0186 14.5862 22.086 14.5862 20.9368V18.855H12.5044C11.3532 18.855 10.4226 17.9224 10.4226 16.7732C10.4226 15.624 11.3532 14.6914 12.5044 14.6914H14.5862V12.6096C14.5862 11.4604 15.5168 10.5278 16.668 10.5278C17.8192 10.5278 18.7498 11.4604 18.7498 12.6096V14.6914H20.8316C21.9829 14.6914 22.9134 15.624 22.9134 16.7732C22.9134 17.9224 21.9829 18.855 20.8316 18.855ZM29.159 16.7732C28.0098 16.7732 27.0772 15.8406 27.0772 14.6914C27.0772 13.5422 28.0098 12.6096 29.159 12.6096C30.3081 12.6096 31.2408 13.5422 31.2408 14.6914C31.2408 15.8406 30.3081 16.7732 29.159 16.7732ZM33.3227 20.9368C32.1735 20.9368 31.2409 20.0042 31.2409 18.855C31.2409 17.7058 32.1735 16.7732 33.3227 16.7732C34.4718 16.7732 35.4045 17.7058 35.4045 18.855C35.4045 20.0042 34.4718 20.9368 33.3227 20.9368ZM37.4863 16.7732C36.3371 16.7732 35.4045 15.8406 35.4045 14.6914C35.4045 13.5422 36.3371 12.6096 37.4863 12.6096C38.6355 12.6096 39.5681 13.5422 39.5681 14.6914C39.5681 15.8406 38.6355 16.7732 37.4863 16.7732Z" fill="#53555C"/>
</svg>
