<svg width="50" height="50" viewBox="0 0 50 50" xmlns="http://www.w3.org/2000/svg">
<g clip-path="url(#clip0_25_289)">
<path d="M11.0352 48.5352C11.0352 49.3443 11.6909 50 12.5 50H31.0547C31.8638 50 32.5195 49.3443 32.5195 48.5352V44.1406H11.0352V48.5352Z" fill="#53555C"/>
<path d="M44.91 43.0645C44.7933 42.5705 44.429 42.1719 43.9476 42.0113L40.0814 40.7227H42.7734C43.5825 40.7227 44.2383 40.0669 44.2383 39.2578V33.3984C44.2383 32.8907 43.9754 32.4192 43.5436 32.1522C43.1118 31.8855 42.5724 31.8611 42.1185 32.0885L31.6856 37.3047H11.0352V41.2109H30.936L38.3053 48.5802C38.5914 48.8663 38.966 49.0089 39.341 49.0089C39.716 49.0089 40.0909 48.8659 40.3767 48.5802L44.5198 44.4366C44.8791 44.0777 45.0268 43.5585 44.91 43.0645Z" fill="#53555C"/>
<path d="M22.2656 11.2076C22.7016 12.0575 22.9492 13.0192 22.9492 14.0381C22.9492 14.4787 22.9027 14.9082 22.8153 15.3229C23.4058 16.2113 24.4152 16.7969 25.5615 16.7969C27.3819 16.7969 28.8574 15.3214 28.8574 13.501V13.3057C28.8574 15.126 30.3329 16.6016 32.1533 16.6016C33.9737 16.6016 35.4492 15.126 35.4492 13.3057V7.20215C35.4492 5.38177 33.9737 3.90625 32.1533 3.90625C30.3329 3.90625 28.8574 5.38177 28.8574 7.20215V5.24902C28.8574 3.42865 27.3819 1.95312 25.5615 1.95312C23.7411 1.95312 22.2656 3.42865 22.2656 5.24902V3.2959C22.2656 1.47552 20.7901 0 18.9697 0C17.1494 0 15.6738 1.47552 15.6738 3.2959V5.24902C15.6738 3.42865 14.1983 1.95312 12.3779 1.95312C10.5576 1.95312 9.08203 3.42865 9.08203 5.24902V7.8125H16.7236C19.1376 7.8125 21.2334 9.19418 22.2656 11.2076Z" fill="#53555C"/>
<path d="M11.0352 34.375H32.5195V32.4734C34.3674 30.9536 35.4492 28.6873 35.4492 26.2642V18.5837C34.4925 19.1833 33.363 19.5312 32.1533 19.5312C31.0078 19.5312 29.9347 19.2188 29.0115 18.6771C28.0235 19.3386 26.8375 19.7266 25.5615 19.7266C23.9662 19.7266 22.5098 19.1231 21.4073 18.1328C20.4979 19.1715 19.2505 19.9055 17.8375 20.1618C18.4929 21.7022 18.8419 23.3696 18.8477 25.0572C18.8503 25.8759 18.1931 26.5671 17.3744 26.5625C16.576 26.5579 15.9286 25.9148 15.918 25.1175C15.8897 22.9668 15.2493 20.8694 13.9057 19.1898L12.421 17.334H16.6584C18.5066 17.334 20.0542 15.8215 20.0188 13.974C19.9848 12.1834 18.5226 10.7422 16.7236 10.7422H8.47168C6.65131 10.7422 5.17578 12.2177 5.17578 14.0381C5.17578 14.0423 5.17616 14.0461 5.17616 14.0503C5.17616 14.0545 5.17578 14.0583 5.17578 14.0625V23.6088C5.17578 27.5726 7.49054 31.1161 11.0352 32.7339V34.375Z" fill="#53555C"/>
</g>
<defs>
<clipPath id="clip0_25_289">
<rect width="50" height="50" fill="white"/>
</clipPath>
</defs>
</svg>
