<svg width="20" height="20" viewBox="0 0 20 20" fill="none" xmlns="http://www.w3.org/2000/svg">
<g clip-path="url(#clip0_190_126)">
<path d="M10.4533 7.94998V8.95554C10.4533 9.2749 10.5171 9.54285 10.643 9.75159C10.8166 10.0397 11.1017 10.2048 11.4253 10.2048C11.7424 10.2048 12.0575 10.0504 12.3617 9.74609L15.683 6.42487C16.4122 5.69565 16.4122 4.50912 15.683 3.77991L12.3617 0.458679C12.0575 0.154266 11.7424 0 11.4253 0C10.9414 0 10.4533 0.386353 10.4533 1.24924V2.16248C5.73803 2.44095 1.83453 6.05957 1.25439 10.7973C1.22189 11.0619 1.37234 11.3152 1.6203 11.4133C1.69049 11.441 1.76358 11.4545 1.83575 11.4545C2.01855 11.4545 2.19586 11.3689 2.30877 11.2146C3.86487 9.08844 6.36334 7.81906 8.99212 7.81906C9.47919 7.81906 9.96899 7.86301 10.4533 7.94998Z" fill="black"/>
<path d="M18.3692 8.58672C18.1212 8.48846 17.8383 8.57024 17.6807 8.78555C16.1248 10.9116 13.6263 12.1809 10.9975 12.1809C10.5105 12.1809 10.0207 12.137 9.53634 12.05V11.0445C9.53634 10.1816 9.04806 9.79522 8.56436 9.79522C8.24728 9.79522 7.93219 9.94964 7.62777 10.2541L4.30655 13.5751C3.57748 14.3043 3.57748 15.4909 4.3067 16.2202L7.62777 19.5413C7.93219 19.8457 8.24728 20 8.56436 20C9.04806 20 9.53634 19.6136 9.53634 18.7508V17.8375C14.2518 17.559 18.1551 13.9404 18.7353 9.20287C18.7678 8.93813 18.6173 8.68484 18.3692 8.58672Z" fill="black"/>
</g>
<defs>
<clipPath id="clip0_190_126">
<rect width="20" height="20" fill="white"/>
</clipPath>
</defs>
</svg>
