<svg width="40" height="40" viewBox="0 0 40 40" fill="none" xmlns="http://www.w3.org/2000/svg">
<path d="M28.666 18.78C30.101 19.0817 31.431 19.3617 32.761 19.64C33.5777 19.8117 34.6577 21.0534 34.6627 21.8767C34.6744 24.07 34.6777 26.2634 34.6527 28.4567C34.6494 28.7284 34.521 29.0534 34.3427 29.2617C32.8994 30.95 31.441 32.625 29.956 34.2767C29.766 34.4884 29.401 34.645 29.1144 34.65C27.2827 34.6834 25.4494 34.685 23.6177 34.65C23.301 34.6434 22.911 34.49 22.6844 34.2717C21.0127 32.645 19.3644 30.995 17.7377 29.3234C17.5177 29.0967 17.3544 28.71 17.3494 28.395C17.316 26.1184 17.326 23.8417 17.3344 21.565C17.3377 20.8034 18.1544 20.0017 18.9277 20.0067C19.491 20.01 20.0544 20.0617 20.666 20.095C20.666 18.4284 20.666 16.6817 20.666 14.935C20.666 13.1884 21.176 12.6684 22.8927 12.6684C23.2227 12.6684 23.5527 12.6684 24.001 12.6684C24.001 12.195 24.001 11.7634 24.001 11.33C24.001 9.95838 24.6277 9.30005 25.9977 9.35005C26.6777 9.37505 27.4077 9.08005 28.0327 9.72505C28.4944 10.2017 28.6944 10.6584 28.6827 11.325C28.6427 13.79 28.666 16.2584 28.666 18.78ZM20.666 25.9684C20.666 24.8634 20.6277 23.8384 20.6794 22.8167C20.7177 22.0584 20.1844 21.7117 19.706 21.3984C19.181 21.0534 18.6777 21.4134 18.671 22.0667C18.6577 23.4 18.7877 24.7467 18.636 26.0617C18.4394 27.7717 18.9994 29.0067 20.3144 30.08C21.5294 31.0734 22.4344 32.665 23.7894 33.2067C25.1544 33.7534 26.9077 33.355 28.4894 33.315C28.796 33.3067 29.1794 33.1217 29.3877 32.8917C30.586 31.58 31.7594 30.245 32.8977 28.8817C33.136 28.595 33.3044 28.1584 33.3144 27.7867C33.3577 26.0384 33.336 24.2884 33.3327 22.54C33.331 21.5184 32.9227 21.035 31.9227 20.8284C30.406 20.515 28.8927 20.195 27.3327 19.8667C27.3327 17.0617 27.3077 14.3167 27.3477 11.5717C27.3594 10.7984 27.0477 10.6484 26.361 10.6467C25.656 10.645 25.3027 10.7617 25.3144 11.5984C25.361 14.6517 25.3327 17.7067 25.3327 20.7617C25.3327 21.055 25.3327 21.3467 25.3327 21.625C24.8294 21.625 24.4494 21.625 23.9827 21.625C23.9827 19.0734 23.9827 16.5634 23.9827 14.0017C23.7044 14.0017 23.5127 14.0034 23.3227 14.0017C21.9994 13.9884 21.9994 13.9884 21.9994 15.3017C21.9994 18.3567 21.9994 21.41 21.9994 24.465C21.9994 24.9567 21.9994 25.4484 21.9994 25.97C21.5277 25.9684 21.1494 25.9684 20.666 25.9684Z" fill="#61F908"/>
<path d="M34.5999 18.6717C34.1949 18.6717 33.8166 18.6717 33.3333 18.6717C33.3333 18.3533 33.3333 18.0567 33.3333 17.76C33.3333 14.3983 33.3149 11.0367 33.3466 7.67666C33.3533 6.94499 33.1916 6.64666 32.3816 6.64999C24.1316 6.67666 15.8816 6.67332 7.6316 6.65499C6.9366 6.65332 6.64493 6.81332 6.64993 7.57832C6.6816 11.8567 6.6816 16.1333 6.64993 20.4117C6.64493 21.165 6.91327 21.3567 7.6216 21.3467C10.1216 21.3133 12.6216 21.3333 15.1216 21.3333C15.3916 21.3333 15.6616 21.3333 15.9633 21.3333C15.9633 21.8 15.9633 22.1783 15.9633 22.6667C15.4649 22.6667 14.9749 22.6667 14.4849 22.6667C11.9849 22.6667 9.48494 22.67 6.98494 22.665C6.1066 22.6633 5.33327 21.88 5.3316 20.9933C5.32827 16.3267 5.32827 11.66 5.3316 6.99332C5.3316 6.11166 6.11327 5.33499 6.9966 5.33499C15.6633 5.33332 24.3299 5.33332 32.9966 5.33499C33.7999 5.33499 34.6566 6.08666 34.6583 6.82832C34.6666 10.6617 34.6616 14.495 34.6583 18.3283C34.6616 18.4317 34.6249 18.5367 34.5999 18.6717Z" fill="#61F908"/>
<path d="M11.373 19.9467C11.373 19.5017 11.373 19.1233 11.373 18.705C13.1214 18.705 14.8297 18.705 16.603 18.705C16.603 19.0983 16.603 19.4933 16.603 19.9467C14.888 19.9467 13.158 19.9467 11.373 19.9467Z" fill="#61F908"/>
<path d="M9.98624 8.06331C9.98624 8.48498 9.98624 8.84331 9.98624 9.26831C9.35624 9.26831 8.7379 9.26831 8.05957 9.26831C8.05957 8.89498 8.05957 8.49998 8.05957 8.06331C8.69457 8.06331 9.33457 8.06331 9.98624 8.06331Z" fill="#61F908"/>
<path d="M13.2975 8.04167C13.2975 8.46667 13.2975 8.84334 13.2975 9.27667C12.6709 9.27667 12.0509 9.27667 11.3809 9.27667C11.3809 8.87667 11.3809 8.48001 11.3809 8.04167C12.0042 8.04167 12.6025 8.04167 13.2975 8.04167Z" fill="#61F908"/>
<path d="M16.651 8.04834C16.651 8.49167 16.651 8.85001 16.651 9.27001C16.0193 9.27001 15.401 9.27001 14.7227 9.27001C14.7227 8.89167 14.7227 8.49501 14.7227 8.04834C15.3427 8.04834 15.9627 8.04834 16.651 8.04834Z" fill="#61F908"/>
<path d="M19.9614 9.3C19.3064 9.3 18.708 9.3 18.0547 9.3C18.0547 8.885 18.0547 8.48833 18.0547 8.045C18.6847 8.045 19.303 8.045 19.9614 8.045C19.9614 8.45666 19.9614 8.83333 19.9614 9.3Z" fill="#61F908"/>
<path d="M23.2968 8.05501C23.2968 8.49501 23.2968 8.87334 23.2968 9.29167C22.6618 9.29167 22.0634 9.29167 21.3984 9.29167C21.3984 8.90501 21.3984 8.51001 21.3984 8.05501C21.9951 8.05501 22.6151 8.05501 23.2968 8.05501Z" fill="#61F908"/>
<path d="M31.9518 9.29334C31.3251 9.29334 30.7251 9.29334 30.0635 9.29334C30.0635 8.90334 30.0635 8.50667 30.0635 8.05501C30.6651 8.05501 31.2835 8.05501 31.9518 8.05501C31.9518 8.46001 31.9518 8.85501 31.9518 9.29334Z" fill="#61F908"/>
<path d="M8.04102 10.7017C8.68435 10.7017 9.28435 10.7017 9.94102 10.7017C9.94102 11.1067 9.94102 11.5017 9.94102 11.95C9.32268 11.95 8.70435 11.95 8.04102 11.95C8.04102 11.5483 8.04102 11.1717 8.04102 10.7017Z" fill="#61F908"/>
<path d="M13.2678 11.97C12.6295 11.97 12.0311 11.97 11.3828 11.97C11.3828 11.545 11.3828 11.1483 11.3828 10.7083C12.0045 10.7083 12.6028 10.7083 13.2678 10.7083C13.2678 11.0933 13.2678 11.49 13.2678 11.97Z" fill="#61F908"/>
<path d="M14.7061 11.9466C14.7061 11.4966 14.7061 11.12 14.7061 10.7033C15.3444 10.7033 15.9444 10.7033 16.6044 10.7033C16.6044 11.0983 16.6044 11.495 16.6044 11.9466C15.9961 11.9466 15.3777 11.9466 14.7061 11.9466Z" fill="#61F908"/>
<path d="M19.9662 10.7066C19.9662 11.135 19.9662 11.5116 19.9662 11.945C19.3362 11.945 18.7162 11.945 18.0479 11.945C18.0479 11.5416 18.0479 11.145 18.0479 10.7066C18.6729 10.7066 19.2729 10.7066 19.9662 10.7066Z" fill="#61F908"/>
<path d="M31.9716 10.7333C31.9716 11.1417 31.9716 11.52 31.9716 11.9483C31.3299 11.9483 30.7099 11.9483 30.0449 11.9483C30.0449 11.555 30.0449 11.1767 30.0449 10.7333C30.6433 10.7333 31.2599 10.7333 31.9716 10.7333Z" fill="#61F908"/>
<path d="M9.9424 14.6284C9.2774 14.6284 8.67906 14.6284 8.03906 14.6284C8.03906 14.2134 8.03906 13.835 8.03906 13.395C8.64573 13.395 9.26406 13.395 9.9424 13.395C9.9424 13.7767 9.9424 14.1717 9.9424 14.6284Z" fill="#61F908"/>
<path d="M13.2764 14.6284C12.6114 14.6284 12.013 14.6284 11.373 14.6284C11.373 14.2134 11.373 13.835 11.373 13.395C11.9797 13.395 12.598 13.395 13.2764 13.395C13.2764 13.7767 13.2764 14.1717 13.2764 14.6284Z" fill="#61F908"/>
<path d="M16.6094 14.6284C15.9444 14.6284 15.3461 14.6284 14.7061 14.6284C14.7061 14.2134 14.7061 13.835 14.7061 13.395C15.3127 13.395 15.9311 13.395 16.6094 13.395C16.6094 13.7767 16.6094 14.1717 16.6094 14.6284Z" fill="#61F908"/>
<path d="M30.0146 14.6183C30.0146 14.175 30.0146 13.8166 30.0146 13.3966C30.6463 13.3966 31.2663 13.3966 31.943 13.3966C31.943 13.775 31.943 14.1716 31.943 14.6183C31.323 14.6183 30.703 14.6183 30.0146 14.6183Z" fill="#61F908"/>
<path d="M9.94613 17.2917C9.2678 17.2917 8.66947 17.2917 8.03613 17.2917C8.03613 16.8717 8.03613 16.495 8.03613 16.0583C8.65447 16.0583 9.27447 16.0583 9.94613 16.0583C9.94613 16.4517 9.94613 16.8467 9.94613 17.2917Z" fill="#61F908"/>
<path d="M13.2791 17.2917C12.6008 17.2917 12.0025 17.2917 11.3691 17.2917C11.3691 16.8717 11.3691 16.495 11.3691 16.0583C11.9875 16.0583 12.6075 16.0583 13.2791 16.0583C13.2791 16.4517 13.2791 16.8467 13.2791 17.2917Z" fill="#61F908"/>
<path d="M16.6131 17.2917C15.9348 17.2917 15.3365 17.2917 14.7031 17.2917C14.7031 16.8717 14.7031 16.495 14.7031 16.0583C15.3215 16.0583 15.9415 16.0583 16.6131 16.0583C16.6131 16.4517 16.6131 16.8467 16.6131 17.2917Z" fill="#61F908"/>
<path d="M31.9518 17.2933C31.3251 17.2933 30.7251 17.2933 30.0635 17.2933C30.0635 16.9033 30.0635 16.5066 30.0635 16.0549C30.6651 16.0549 31.2835 16.0549 31.9518 16.0549C31.9518 16.4599 31.9518 16.8549 31.9518 17.2933Z" fill="#61F908"/>
<path d="M9.95997 18.7134C9.95997 19.12 9.95997 19.4984 9.95997 19.9384C9.35164 19.9384 8.73331 19.9384 8.05664 19.9384C8.05664 19.555 8.05664 19.1584 8.05664 18.7134C8.67997 18.7134 9.29831 18.7134 9.95997 18.7134Z" fill="#61F908"/>
<rect x="1" y="1" width="38" height="38" rx="7" stroke="#61F908" stroke-width="2"/>
</svg>
