<svg width="30" height="30" viewBox="0 0 30 30" fill="none" xmlns="http://www.w3.org/2000/svg">
<path d="M23.667 13.7807C25.102 14.0824 26.432 14.3624 27.762 14.6407C28.5787 14.8124 29.6587 16.054 29.6637 16.8774C29.6753 19.0707 29.6787 21.264 29.6537 23.4574C29.6503 23.729 29.522 24.054 29.3437 24.2624C27.9003 25.9507 26.442 27.6257 24.957 29.2774C24.767 29.489 24.402 29.6457 24.1153 29.6507C22.2837 29.684 20.4503 29.6857 18.6187 29.6507C18.302 29.644 17.912 29.4907 17.6853 29.2724C16.0137 27.6457 14.3653 25.9957 12.7387 24.324C12.5187 24.0974 12.3553 23.7107 12.3503 23.3957C12.317 21.119 12.327 18.8424 12.3353 16.5657C12.3387 15.804 13.1553 15.0024 13.9287 15.0074C14.492 15.0107 15.0553 15.0624 15.667 15.0957C15.667 13.429 15.667 11.6824 15.667 9.9357C15.667 8.18904 16.177 7.66904 17.8937 7.66904C18.2237 7.66904 18.5537 7.66904 19.002 7.66904C19.002 7.1957 19.002 6.76404 19.002 6.3307C19.002 4.95904 19.6287 4.3007 20.9987 4.3507C21.6787 4.3757 22.4087 4.0807 23.0337 4.7257C23.4953 5.20237 23.6953 5.65904 23.6837 6.3257C23.6437 8.7907 23.667 11.259 23.667 13.7807ZM15.667 20.969C15.667 19.864 15.6287 18.839 15.6803 17.8174C15.7187 17.059 15.1853 16.7124 14.707 16.399C14.182 16.054 13.6787 16.414 13.672 17.0674C13.6587 18.4007 13.7887 19.7474 13.637 21.0624C13.4403 22.7724 14.0003 24.0074 15.3153 25.0807C16.5303 26.074 17.4353 27.6657 18.7903 28.2074C20.1553 28.754 21.9087 28.3557 23.4903 28.3157C23.797 28.3074 24.1803 28.1224 24.3887 27.8924C25.587 26.5807 26.7603 25.2457 27.8987 23.8824C28.137 23.5957 28.3053 23.159 28.3153 22.7874C28.3587 21.039 28.337 19.289 28.3337 17.5407C28.332 16.519 27.9237 16.0357 26.9237 15.829C25.407 15.5157 23.8937 15.1957 22.3337 14.8674C22.3337 12.0624 22.3087 9.31737 22.3487 6.57237C22.3603 5.79904 22.0487 5.64904 21.362 5.64737C20.657 5.6457 20.3037 5.76237 20.3153 6.59904C20.362 9.65237 20.3337 12.7074 20.3337 15.7624C20.3337 16.0557 20.3337 16.3474 20.3337 16.6257C19.8303 16.6257 19.4503 16.6257 18.9837 16.6257C18.9837 14.074 18.9837 11.564 18.9837 9.00237C18.7053 9.00237 18.5137 9.00404 18.3237 9.00237C17.0003 8.98904 17.0003 8.98904 17.0003 10.3024C17.0003 13.3574 17.0003 16.4107 17.0003 19.4657C17.0003 19.9574 17.0003 20.449 17.0003 20.9707C16.5287 20.969 16.1503 20.969 15.667 20.969Z" fill="#61F908"/>
<path d="M29.6004 13.6719C29.1954 13.6719 28.8171 13.6719 28.3338 13.6719C28.3338 13.3536 28.3338 13.0569 28.3338 12.7602C28.3338 9.39857 28.3154 6.0369 28.3471 2.6769C28.3538 1.94523 28.1921 1.6469 27.3821 1.65023C19.1321 1.6769 10.8821 1.67357 2.63209 1.65523C1.93709 1.65357 1.64542 1.81357 1.65042 2.57857C1.68209 6.8569 1.68209 11.1336 1.65042 15.4119C1.64542 16.1652 1.91376 16.3569 2.62209 16.3469C5.12209 16.3136 7.62209 16.3336 10.1221 16.3336C10.3921 16.3336 10.6621 16.3336 10.9638 16.3336C10.9638 16.8002 10.9638 17.1786 10.9638 17.6669C10.4654 17.6669 9.97542 17.6669 9.48542 17.6669C6.98542 17.6669 4.48542 17.6702 1.98542 17.6652C1.10709 17.6636 0.333757 16.8802 0.33209 15.9936C0.328757 11.3269 0.328757 6.66023 0.33209 1.99357C0.33209 1.1119 1.11376 0.335234 1.99709 0.335234C10.6638 0.333568 19.3304 0.333568 27.9971 0.335234C28.8004 0.335234 29.6571 1.0869 29.6588 1.82857C29.6671 5.6619 29.6621 9.49523 29.6588 13.3286C29.6621 13.4319 29.6254 13.5369 29.6004 13.6719Z" fill="#61F908"/>
<path d="M6.37305 14.9467C6.37305 14.5017 6.37305 14.1234 6.37305 13.7051C8.12138 13.7051 9.82971 13.7051 11.603 13.7051C11.603 14.0984 11.603 14.4934 11.603 14.9467C9.88805 14.9467 8.15805 14.9467 6.37305 14.9467Z" fill="#61F908"/>
<path d="M4.98672 3.06348C4.98672 3.48514 4.98672 3.84348 4.98672 4.26848C4.35672 4.26848 3.73839 4.26848 3.06006 4.26848C3.06006 3.89514 3.06006 3.50014 3.06006 3.06348C3.69506 3.06348 4.33506 3.06348 4.98672 3.06348Z" fill="#61F908"/>
<path d="M8.2985 3.04199C8.2985 3.46699 8.2985 3.84366 8.2985 4.27699C7.67184 4.27699 7.05184 4.27699 6.38184 4.27699C6.38184 3.87699 6.38184 3.48033 6.38184 3.04199C7.00517 3.04199 7.6035 3.04199 8.2985 3.04199Z" fill="#61F908"/>
<path d="M11.652 3.04883C11.652 3.49216 11.652 3.85049 11.652 4.27049C11.0203 4.27049 10.402 4.27049 9.72363 4.27049C9.72363 3.89216 9.72363 3.49549 9.72363 3.04883C10.3436 3.04883 10.9636 3.04883 11.652 3.04883Z" fill="#61F908"/>
<path d="M14.9614 4.29992C14.3064 4.29992 13.708 4.29992 13.0547 4.29992C13.0547 3.88492 13.0547 3.48826 13.0547 3.04492C13.6847 3.04492 14.303 3.04492 14.9614 3.04492C14.9614 3.45659 14.9614 3.83326 14.9614 4.29992Z" fill="#61F908"/>
<path d="M18.2968 3.05566C18.2968 3.49566 18.2968 3.874 18.2968 4.29233C17.6618 4.29233 17.0634 4.29233 16.3984 4.29233C16.3984 3.90566 16.3984 3.51066 16.3984 3.05566C16.9951 3.05566 17.6151 3.05566 18.2968 3.05566Z" fill="#61F908"/>
<path d="M26.9523 4.294C26.3256 4.294 25.7256 4.294 25.064 4.294C25.064 3.904 25.064 3.50733 25.064 3.05566C25.6656 3.05566 26.284 3.05566 26.9523 3.05566C26.9523 3.46066 26.9523 3.85566 26.9523 4.294Z" fill="#61F908"/>
<path d="M3.04199 5.70215C3.68533 5.70215 4.28533 5.70215 4.94199 5.70215C4.94199 6.10715 4.94199 6.50215 4.94199 6.95048C4.32366 6.95048 3.70533 6.95048 3.04199 6.95048C3.04199 6.54882 3.04199 6.17215 3.04199 5.70215Z" fill="#61F908"/>
<path d="M8.26879 6.97065C7.63046 6.97065 7.03212 6.97065 6.38379 6.97065C6.38379 6.54565 6.38379 6.14898 6.38379 5.70898C7.00546 5.70898 7.60379 5.70898 8.26879 5.70898C8.26879 6.09398 8.26879 6.49065 8.26879 6.97065Z" fill="#61F908"/>
<path d="M9.70654 6.94646C9.70654 6.49646 9.70654 6.11979 9.70654 5.70312C10.3449 5.70312 10.9449 5.70312 11.6049 5.70312C11.6049 6.09812 11.6049 6.49479 11.6049 6.94646C10.9965 6.94646 10.3782 6.94646 9.70654 6.94646Z" fill="#61F908"/>
<path d="M14.9667 5.70703C14.9667 6.13536 14.9667 6.51203 14.9667 6.94536C14.3367 6.94536 13.7167 6.94536 13.0483 6.94536C13.0483 6.54203 13.0483 6.14536 13.0483 5.70703C13.6733 5.70703 14.2733 5.70703 14.9667 5.70703Z" fill="#61F908"/>
<path d="M26.9716 5.7334C26.9716 6.14173 26.9716 6.52006 26.9716 6.9484C26.3299 6.9484 25.7099 6.9484 25.0449 6.9484C25.0449 6.55506 25.0449 6.17673 25.0449 5.7334C25.6433 5.7334 26.2599 5.7334 26.9716 5.7334Z" fill="#61F908"/>
<path d="M4.94337 9.62884C4.27837 9.62884 3.68004 9.62884 3.04004 9.62884C3.04004 9.21384 3.04004 8.83551 3.04004 8.39551C3.64671 8.39551 4.26504 8.39551 4.94337 8.39551C4.94337 8.77717 4.94337 9.17217 4.94337 9.62884Z" fill="#61F908"/>
<path d="M8.27638 9.62884C7.61138 9.62884 7.01305 9.62884 6.37305 9.62884C6.37305 9.21384 6.37305 8.83551 6.37305 8.39551C6.97971 8.39551 7.59805 8.39551 8.27638 8.39551C8.27638 8.77717 8.27638 9.17217 8.27638 9.62884Z" fill="#61F908"/>
<path d="M11.6099 9.62884C10.9449 9.62884 10.3465 9.62884 9.70654 9.62884C9.70654 9.21384 9.70654 8.83551 9.70654 8.39551C10.3132 8.39551 10.9315 8.39551 11.6099 8.39551C11.6099 8.77717 11.6099 9.17217 11.6099 9.62884Z" fill="#61F908"/>
<path d="M25.0151 9.61815C25.0151 9.17482 25.0151 8.81648 25.0151 8.39648C25.6468 8.39648 26.2668 8.39648 26.9435 8.39648C26.9435 8.77482 26.9435 9.17148 26.9435 9.61815C26.3235 9.61815 25.7035 9.61815 25.0151 9.61815Z" fill="#61F908"/>
<path d="M4.94662 12.2919C4.26829 12.2919 3.66995 12.2919 3.03662 12.2919C3.03662 11.8719 3.03662 11.4953 3.03662 11.0586C3.65495 11.0586 4.27495 11.0586 4.94662 11.0586C4.94662 11.4519 4.94662 11.8469 4.94662 12.2919Z" fill="#61F908"/>
<path d="M8.28012 12.2919C7.60178 12.2919 7.00345 12.2919 6.37012 12.2919C6.37012 11.8719 6.37012 11.4953 6.37012 11.0586C6.98845 11.0586 7.60845 11.0586 8.28012 11.0586C8.28012 11.4519 8.28012 11.8469 8.28012 12.2919Z" fill="#61F908"/>
<path d="M11.6131 12.2919C10.9348 12.2919 10.3365 12.2919 9.70312 12.2919C9.70312 11.8719 9.70312 11.4953 9.70312 11.0586C10.3215 11.0586 10.9415 11.0586 11.6131 11.0586C11.6131 11.4519 11.6131 11.8469 11.6131 12.2919Z" fill="#61F908"/>
<path d="M26.9523 12.293C26.3256 12.293 25.7256 12.293 25.064 12.293C25.064 11.903 25.064 11.5064 25.064 11.0547C25.6656 11.0547 26.284 11.0547 26.9523 11.0547C26.9523 11.4597 26.9523 11.8547 26.9523 12.293Z" fill="#61F908"/>
<path d="M4.95997 13.7139C4.95997 14.1205 4.95997 14.4989 4.95997 14.9389C4.35164 14.9389 3.73331 14.9389 3.05664 14.9389C3.05664 14.5555 3.05664 14.1589 3.05664 13.7139C3.67997 13.7139 4.29831 13.7139 4.95997 13.7139Z" fill="#61F908"/>
</svg>
