<svg width="50" height="50" viewBox="0 0 50 50" xmlns="http://www.w3.org/2000/svg">
<g clip-path="url(#clip0_47_21)">
<path d="M26.5689 28.0338C34.2979 28.0338 40.5858 21.7458 40.5858 14.0169C40.5858 6.28799 34.2979 0 26.5689 0C18.8399 0 12.552 6.28799 12.552 14.0169C12.552 21.7458 18.84 28.0338 26.5689 28.0338ZM25.1041 7.90693V7.74092C25.1041 6.93193 25.76 6.27607 26.5689 6.27607C27.3779 6.27607 28.0338 6.93193 28.0338 7.74092V7.84502H28.138C28.947 7.84502 29.6028 8.50088 29.6028 9.30986C29.6028 10.1188 28.947 10.7747 28.138 10.7747H25.7844C25.2943 10.7747 24.8957 11.1733 24.8957 11.6635C24.8957 12.1535 25.2943 12.5521 25.7844 12.5521H27.3535C29.4591 12.5521 31.172 14.265 31.172 16.3706C31.172 18.2437 29.8158 19.8051 28.0339 20.1271V20.2931C28.0339 21.1021 27.378 21.7579 26.569 21.7579C25.7601 21.7579 25.1042 21.1021 25.1042 20.2931V20.189H25C24.191 20.189 23.5352 19.5331 23.5352 18.7241C23.5352 17.9151 24.191 17.2593 25 17.2593H27.3535C27.8436 17.2593 28.2423 16.8606 28.2423 16.3706C28.2423 15.8805 27.8436 15.4818 27.3535 15.4818H25.7846C23.6791 15.4818 21.9662 13.7689 21.9662 11.6635C21.9662 9.79023 23.3224 8.22891 25.1041 7.90693Z" fill="#53555C"/>
<path d="M46.0519 9.05116L49.1899 7.48212C49.9136 7.1204 50.2068 6.24052 49.845 5.51689C49.4832 4.79325 48.6035 4.49999 47.8798 4.86171L44.7417 6.43075C44.0181 6.79247 43.7248 7.67235 44.0866 8.39599C44.4498 9.12235 45.3311 9.41132 46.0519 9.05116Z" fill="#53555C"/>
<path d="M49.1899 20.5517L46.0519 18.9827C45.3286 18.6213 44.4484 18.9142 44.0866 19.6379C43.7248 20.3615 44.0181 21.2414 44.7417 21.6031L47.8798 23.1722C48.6024 23.5333 49.4827 23.2415 49.845 22.517C50.2068 21.7934 49.9136 20.9135 49.1899 20.5517Z" fill="#53555C"/>
<path d="M8.39629 6.43076L5.2582 4.86162C4.53447 4.4999 3.65479 4.79316 3.29297 5.51679C2.93115 6.24043 3.22442 7.12031 3.94805 7.48203L7.08613 9.05107C7.80693 9.41132 8.68818 9.12236 9.05137 8.3959C9.41318 7.67226 9.11992 6.79248 8.39629 6.43076Z" fill="#53555C"/>
<path d="M7.08613 18.9827L3.94805 20.5517C3.22442 20.9135 2.93115 21.7934 3.29297 22.517C3.65528 23.2415 4.53555 23.5333 5.2582 23.1722L8.39629 21.6031C9.11992 21.2414 9.41318 20.3615 9.05137 19.6379C8.68955 18.9142 7.80938 18.6213 7.08613 18.9827Z" fill="#53555C"/>
<path d="M39.6329 32.153L32.5481 39.238C31.6777 40.1075 30.5224 40.5859 29.2942 40.5859H23.978C23.1893 40.5859 22.5106 39.9798 22.4734 39.1919C22.4338 38.3507 23.1041 37.6562 23.9366 37.6562H28.6804C30.4135 37.6562 31.8184 36.2513 31.8184 34.5183C31.8184 32.7853 30.4135 31.3803 28.6804 31.3803H19.1265C14.6826 31.3803 13.2746 35.1236 13.0412 36.0873H10.7746V46.862H30.9742C32.7957 46.862 34.5087 46.1524 35.7978 44.8639L46.4328 34.2284C46.9895 33.6719 47.0231 32.7456 46.4257 32.1497C44.4782 30.2071 41.4554 30.3306 39.6329 32.153Z" fill="#53555C"/>
<path d="M6.38027 32.9492H1.46484C0.655859 32.9492 0 33.6051 0 34.4141V48.5352C0 49.3441 0.655859 50 1.46484 50H6.38018C7.18916 50 7.84502 49.3441 7.84502 48.5352V34.4141C7.84512 33.6051 7.18926 32.9492 6.38027 32.9492Z" fill="#53555C"/>
</g>
<defs>
<clipPath id="clip0_47_21">
<rect width="50" height="50" fill="white"/>
</clipPath>
</defs>
</svg>
