<svg width="36" height="36" viewBox="0 0 36 36" fill="none" xmlns="http://www.w3.org/2000/svg">
<rect opacity="0.2" width="36" height="36" rx="8" fill="#53555C"/>
<path d="M27.6223 9.24745C27.2812 8.96125 26.7453 8.9203 26.1913 9.14035H26.1904C25.6077 9.37165 9.69614 16.1235 9.0484 16.3993C8.93059 16.4398 7.90166 16.8196 8.00765 17.6656C8.10226 18.4284 8.92922 18.7443 9.03021 18.7807L13.0754 20.151C13.3438 21.0348 14.3331 24.2955 14.5519 24.9921C14.6884 25.4263 14.9108 25.9969 15.3007 26.1144C15.6427 26.2449 15.983 26.1256 16.2031 25.9546L18.6763 23.6853L22.6687 26.7655L22.7638 26.8218C23.0349 26.9406 23.2946 27 23.5425 27C23.7341 27 23.9178 26.9645 24.0934 26.8934C24.6916 26.6503 24.9308 26.0865 24.9558 26.0226L27.938 10.6879C28.12 9.8689 27.8671 9.4522 27.6223 9.24745ZM16.643 20.6991L15.2784 24.2991L13.9137 19.7991L24.3759 12.1491L16.643 20.6991Z" fill="#61F908"/>
</svg>
