<svg width="50" height="50" viewBox="0 0 50 50" xmlns="http://www.w3.org/2000/svg">
<path d="M45.6673 2.9911C45.4825 1.93032 44.5617 1.15621 43.485 1.15621H38.6823C38.3067 0.467485 37.5759 0 36.7362 0H13.2634C12.4237 0 11.6929 0.467485 11.3174 1.15629H6.51514C5.4385 1.15629 4.51775 1.93056 4.33278 2.99102C4.30655 3.14168 3.70279 6.72486 4.85754 10.6553C5.69185 13.4953 7.55665 16.9188 11.6859 19.0535C11.0071 20.7475 10.1748 22.6145 9.15445 24.6752C8.94358 25.1008 9.01449 25.612 9.33312 25.9644C12.4678 29.4291 16.0238 31.7643 19.8073 32.8768C19.8002 32.9598 19.7947 33.0432 19.7947 33.128V33.2746C19.7947 34.3952 20.4237 35.3682 21.3475 35.8618C21.4884 37.661 21.0782 40.6054 20.1153 42.9387H15.9268C14.9966 42.9387 14.2427 43.6927 14.2427 44.6228V48.3159C14.2427 49.2461 14.9965 50 15.9268 50H34.073C35.0031 50 35.7571 49.246 35.7571 48.3159V44.6228C35.7571 43.6927 35.0032 42.9387 34.073 42.9387H29.8843C28.9213 40.6054 28.5106 37.6612 28.6508 35.8622C29.5751 35.3688 30.2044 34.3955 30.2044 33.2746V33.128C30.2044 33.0432 30.1988 32.9599 30.1917 32.877C33.9753 31.7645 37.5313 29.4293 40.6659 25.9644C40.9845 25.612 41.0554 25.1008 40.8446 24.6752C39.8253 22.6166 38.9915 20.7501 38.3104 19.055C42.4416 16.9204 44.3072 13.4961 45.1419 10.6553C46.297 6.72502 45.6937 3.14176 45.6673 2.9911ZM9.14758 9.53671C8.70077 8.07928 8.58451 6.65664 8.58189 5.58678H11.3177C11.6933 6.27559 12.4239 6.74275 13.2636 6.74275C13.6516 6.74275 14.016 6.64242 14.3331 6.46718C14.3353 6.48638 14.3379 6.50492 14.3401 6.52429C14.5286 8.23361 14.3751 10.8725 13.1894 14.8059C11.2117 13.6143 9.85763 11.8531 9.14758 9.53671ZM18.1193 27.5182C16.3971 27.9648 14.5479 26.4223 13.5975 25.1617C13.3648 24.8531 13.1594 24.5439 13.2605 24.1374C13.3197 23.8988 13.4907 23.7011 13.6243 23.4995C14.2076 22.6194 14.691 21.666 15.1161 20.7007C16.0076 18.6774 16.683 16.566 17.184 14.4132C17.5622 12.7888 17.8052 11.1467 18.1193 9.50984C18.5548 12.2137 18.4457 15.0106 17.909 17.6907C17.702 18.7247 17.4209 19.7411 17.0722 20.7357C16.6382 21.9738 16.1009 23.2744 15.3599 24.3876C16.1295 25.5522 17.0119 26.6757 18.1193 27.5182ZM40.8522 9.53663C40.141 11.8551 38.7849 13.6179 36.8041 14.8096C35.6225 10.9014 35.4547 8.24227 35.6675 6.46783C35.9844 6.64291 36.3485 6.74283 36.7361 6.74283C37.5758 6.74283 38.3064 6.27551 38.682 5.58687H41.418C41.4154 6.65754 41.2991 8.07968 40.8522 9.53663Z" fill="#53555C"/>
</svg>
