<svg width="36" height="36" viewBox="0 0 36 36" fill="none" xmlns="http://www.w3.org/2000/svg">
<rect opacity="0.2" width="36" height="36" rx="8" fill="#53555C"/>
<path d="M24.879 12.7627C25.6504 12.2801 26.2276 11.5203 26.5028 10.625C25.7779 11.0751 24.9849 11.3921 24.1579 11.5624C23.0113 10.2932 21.1948 9.98439 19.7232 10.8084C18.2516 11.6324 17.4894 13.3854 17.8624 15.0877C14.8934 14.9317 12.1272 13.4641 10.2522 11.0501C9.27363 12.8162 9.77368 15.074 11.3949 16.2096C10.8087 16.1899 10.2354 16.0238 9.72295 15.7252C9.72295 15.7414 9.72295 15.7576 9.72295 15.7738C9.72329 17.6136 10.9624 19.1983 12.6857 19.5629C12.1419 19.7177 11.5715 19.7405 11.018 19.6295C11.5026 21.2029 12.8884 22.2807 14.4678 22.3129C13.1597 23.3872 11.5442 23.9699 9.88128 23.967C9.58654 23.9675 9.29202 23.9497 8.99927 23.9139C10.6879 25.0494 12.6533 25.6521 14.6605 25.65C17.4531 25.67 20.1368 24.518 22.1114 22.4516C24.086 20.3851 25.1867 17.5767 25.1673 14.6546C25.1673 14.4871 25.1635 14.3205 25.1561 14.1548C25.8793 13.6079 26.5035 12.9303 26.9993 12.154C26.3255 12.4665 25.6108 12.6717 24.879 12.7627Z" fill="#61F908"/>
</svg>
